<svg width="173" height="59" viewBox="0 0 173 59" fill="none" xmlns="http://www.w3.org/2000/svg">
<path d="M63.8353 58.9249L41.2586 58.9678L41.248 32.9814L22.3954 32.976V45.061L14.9072 45.0637V6.84474C12.3613 6.76425 10.0394 6.72936 7.34429 6.79376L7.33096 52.0506L31.8963 52.0613C31.9976 54.6023 32.0136 56.6469 31.931 59H0V0H22.3928L22.3901 25.9032L41.2453 25.9623L41.2506 13.7968L48.7762 13.8371L48.8055 52.0479L56.3844 52.0587L56.3631 6.80181H31.883L31.8777 0H63.8327V58.9222L63.8353 58.9249Z" fill="white"/>
<path d="M127.956 25.8979L125.056 25.9596L116.528 13.0428L116.464 25.9354L113.566 25.922L113.555 8.32853L116.461 8.33658L124.984 21.2372L125.04 8.31511L127.956 8.33121V25.8979Z" fill="white"/>
<path d="M101.703 26.142C96.4861 26.3379 92.5594 22.4956 92.3834 17.4513C92.1942 12.0206 96.4115 7.89922 101.772 8.12192C106.627 8.32316 110.21 12.0501 110.303 16.9361C110.399 21.8865 106.853 25.9462 101.703 26.142ZM107.317 16.8046C107.187 13.7646 105.371 11.1673 102.375 10.7836C100.477 10.5395 98.6801 10.9178 97.3072 12.1708C96.0596 13.3085 95.4385 15.0311 95.3638 16.8771C95.2145 20.7033 97.7124 23.6547 101.405 23.6252C104.931 23.5984 107.48 20.6952 107.315 16.8046H107.317Z" fill="white"/>
<path d="M89.1551 25.8388L86.2441 25.9864L86.2228 18.2696L78.1027 18.2777L78.0894 25.9408L75.1677 25.9247V8.41439L78.0894 8.37146L78.1054 15.9004L86.2308 15.895L86.2414 8.34731L89.1418 8.34999L89.1551 25.8388Z" fill="white"/>
<path d="M154.377 25.6564C152.308 26.4211 150.159 26.295 148.299 25.4256C146.59 24.6287 145.476 23.1315 145.444 21.0923L148.536 21.0789C148.85 23.0993 150.394 23.8345 152.233 23.644C153.518 23.5125 154.542 22.7505 154.763 21.5082C154.966 20.3786 154.249 19.2222 152.972 18.8251L148.52 17.4325C146.582 16.8261 145.468 15.133 145.494 13.1528C145.521 11.1566 146.547 9.50644 148.395 8.731C150.389 7.89117 152.692 7.88312 154.689 8.7632C156.421 9.5279 157.474 11.1673 157.469 12.9248L154.363 12.9114C153.939 11.0546 152.265 10.3892 150.549 10.6709C149.49 10.8453 148.685 11.5832 148.501 12.5169C148.296 13.558 148.872 14.7305 150.007 15.0981L154.07 16.4075C155.16 16.759 156.472 17.4218 157.064 18.4387C158.634 21.1406 157.344 24.5563 154.377 25.6564Z" fill="white"/>
<path d="M141.285 18.2482L135.279 18.2455L135.274 23.5555L142.018 23.534L142.007 25.9596L132.349 25.9462V8.34731L142.055 8.30438L142.061 10.738L135.276 10.73L135.279 15.8333H141.277L141.285 18.2482Z" fill="white"/>
<path d="M168.511 33.8695C168.62 33.4563 169.932 33.4536 170.249 33.7783L165.904 49.2413C165.453 49.5714 164.541 49.5848 163.968 49.3353L160.052 36.11L156 49.4855L154.219 49.515L149.869 33.722L151.578 33.6495L155.19 47.3712L159.215 33.6012L161.001 33.5932L164.928 47.3739L168.505 33.8695H168.511Z" fill="white"/>
<path d="M168.316 25.9301L165.45 25.9166L165.448 10.7514L160.727 10.7702L160.82 8.34999L172.917 8.34463L173 10.7648L168.311 10.7622L168.316 25.9301Z" fill="white"/>
<path d="M145.612 47.1646C142.554 50.6232 137.081 50.5346 134.071 47.2424C131.291 44.2024 131.187 39.3727 133.786 36.1824C136.742 32.5548 142.469 32.4045 145.598 35.9087C148.365 39.0078 148.459 43.9502 145.614 47.1673L145.612 47.1646ZM146.009 41.4655C145.971 37.5052 143.215 34.7147 139.549 34.8381C135.993 34.9562 133.575 37.8969 133.594 41.597C133.615 45.3803 136.143 48.2942 139.819 48.2915C143.495 48.2888 146.046 45.3856 146.009 41.4682V41.4655Z" fill="white"/>
<path d="M127.284 49.4533L123.517 42.9789L120.577 42.8903L120.558 49.4909L118.892 49.3916L118.908 33.5878C121.123 33.5395 123.187 33.4885 125.255 33.7246C127.697 34.0037 129.201 36.0161 129.118 38.3638C129.036 40.7116 127.631 42.4073 125.221 42.7293L129.228 49.405L127.284 49.4506V49.4533ZM127.401 37.9721C127.412 36.2817 126.178 35.0662 124.64 35.034L120.566 34.9508V41.5782L124.458 41.4977C126.266 41.4602 127.615 39.9066 127.401 37.9694V37.9721Z" fill="white"/>
<path d="M102.079 41.4629C102.055 44.3902 103.476 46.9311 105.912 47.8327C108.349 48.7342 111.505 48.2164 112.995 45.882C113.555 45.002 113.904 44.4868 115.429 44.8758C114.667 47.5375 112.134 49.2843 109.274 49.625C104.308 50.2207 100.429 46.577 100.399 41.5863C100.37 36.5956 104.294 32.815 109.319 33.4563C112.11 33.8132 114.456 35.2916 115.44 38.1814L113.622 38.278C112.377 35.415 109.573 34.3659 106.653 35.0126C103.889 35.627 102.106 38.2189 102.079 41.4575V41.4629Z" fill="white"/>
<path d="M96.2648 48.4901C94.7133 49.7833 92.6767 49.9256 90.8293 49.4748C88.9232 49.0106 87.4544 47.7066 87.2677 45.4769L88.9552 45.4098C89.3657 47.6878 91.2051 48.5384 93.3111 48.2781C94.7027 48.1064 95.8356 47.1968 96.0702 45.8793C96.3155 44.5083 95.5157 43.1774 94.0389 42.7293L90.3734 41.6104C88.8486 41.1436 87.7236 39.9925 87.4783 38.6804C87.1585 36.9713 87.681 35.3989 89.0912 34.382C90.2588 33.5395 91.8263 33.3141 93.2951 33.4456C95.5291 33.6415 97.2858 35.0206 97.6217 37.2798L95.8117 37.2396C95.3291 35.3265 93.7083 34.7389 91.9489 34.8381C90.5014 34.9213 89.2964 35.8873 89.0672 37.2074C88.8246 38.608 89.7096 39.8315 91.1438 40.2823L94.7853 41.4253C96.2915 41.8975 97.4191 42.9923 97.6697 44.3795C97.9363 45.8552 97.5604 47.4141 96.2622 48.4954L96.2648 48.4901Z" fill="white"/>
<path d="M83.4663 42.1873H77.5562L77.5456 48.1949L84.2101 48.203L84.2074 49.5123L75.8794 49.5043L75.8741 33.5824L84.2021 33.5395L84.2181 34.924L77.5536 34.9186L77.5482 40.8189L83.4477 40.8216L83.4663 42.1873Z" fill="white"/>
</svg>
