<svg width="201" height="108" viewBox="0 0 201 108" fill="none" xmlns="http://www.w3.org/2000/svg">
<path d="M21.2793 1.02509V2.4895C19.7193 2.53831 18.525 2.73356 17.6962 3.07526C16.9162 3.36814 16.38 3.9539 16.0875 4.83254C15.795 5.66238 15.6487 6.98035 15.6487 8.78644V45.1037C15.6487 46.861 15.795 48.179 16.0875 49.0576C16.38 49.9363 16.9162 50.522 17.6962 50.8149C18.525 51.1078 19.7193 51.3029 21.2793 51.4007V52.8651C20.0606 52.7673 18.5006 52.7186 16.5993 52.7186C14.6981 52.67 12.7725 52.6454 10.8225 52.6454C8.62873 52.6454 6.58123 52.67 4.67999 52.7186C2.77874 52.7186 1.21875 52.7673 0 52.8651V51.4007C1.60875 51.3029 2.80312 51.1078 3.58312 50.8149C4.41188 50.522 4.9481 49.9363 5.19186 49.0576C5.48436 48.179 5.63061 46.861 5.63061 45.1037V8.78644C5.63061 6.98035 5.48436 5.66238 5.19186 4.83254C4.9481 3.9539 4.41188 3.36814 3.58312 3.07526C2.80312 2.73356 1.60875 2.53831 0 2.4895V1.02509C1.21875 1.0739 2.77874 1.12271 4.67999 1.17153C6.58123 1.22034 8.62873 1.24475 10.8225 1.24475C12.7725 1.24475 14.6981 1.22034 16.5993 1.17153C18.5006 1.12271 20.0606 1.0739 21.2793 1.02509Z" fill="#2C3842"/>
<path d="M74.0945 1.02509V2.4895C72.5343 2.63593 71.3398 3.00203 70.5113 3.5878C69.6825 4.12476 69.122 5.0034 68.8295 6.22373C68.5856 7.39525 68.4638 9.07932 68.4638 11.2759V53.0847C68.0251 53.0361 67.5373 53.0115 67.0013 53.0115C66.5136 53.0115 65.9776 53.0361 65.3926 53.0847L34.0219 10.3973V42.0285C34.0219 44.3715 34.1682 46.202 34.4607 47.52C34.7532 48.7893 35.3869 49.7166 36.3619 50.3024C37.3858 50.8394 38.9214 51.2055 40.9689 51.4007V52.8651C40.0424 52.7673 38.8483 52.7186 37.3858 52.7186C35.9231 52.67 34.5338 52.6454 33.2175 52.6454C32.0475 52.6454 30.8531 52.67 29.6344 52.7186C28.4644 52.7186 27.4894 52.7673 26.7094 52.8651V51.4007C28.3182 51.2055 29.5125 50.8394 30.2925 50.3024C31.1213 49.7653 31.6575 48.8867 31.9013 47.6664C32.1938 46.4462 32.34 44.7622 32.34 42.6142V8.78644C32.34 6.98035 32.1938 5.66238 31.9013 4.83254C31.6575 3.9539 31.1213 3.36814 30.2925 3.07526C29.5125 2.73356 28.3182 2.53831 26.7094 2.4895V1.02509C27.4894 1.0739 28.4644 1.12271 29.6344 1.17153C30.8531 1.22034 32.0475 1.24475 33.2175 1.24475C34.3388 1.24475 35.4356 1.22034 36.5081 1.17153C37.5807 1.12271 38.5313 1.0739 39.3602 1.02509L66.782 37.562V11.8617C66.782 9.46984 66.6357 7.63933 66.3432 6.37017C66.0507 5.101 65.4167 4.17356 64.442 3.5878C63.4669 3.00203 61.9312 2.63593 59.8351 2.4895V1.02509C60.7612 1.0739 61.9557 1.12271 63.4182 1.17153C64.9293 1.22034 66.3187 1.24475 67.5863 1.24475C68.805 1.24475 69.9995 1.22034 71.1695 1.17153C72.3881 1.12271 73.3632 1.0739 74.0945 1.02509Z" fill="#2C3842"/>
<path d="M126.439 1.02509V2.4895C124.879 2.63593 123.684 3.00203 122.856 3.5878C122.027 4.12476 121.466 5.0034 121.174 6.22373C120.93 7.39525 120.808 9.07932 120.808 11.2759V53.0847C120.369 53.0361 119.882 53.0115 119.346 53.0115C118.858 53.0115 118.322 53.0361 117.737 53.0847L86.3663 10.3973V42.0285C86.3663 44.3715 86.5125 46.202 86.805 47.52C87.0975 48.7893 87.7311 49.7166 88.7062 50.3024C89.73 50.8394 91.2656 51.2055 93.3131 51.4007V52.8651C92.3866 52.7673 91.1925 52.7186 89.73 52.7186C88.2675 52.67 86.8781 52.6454 85.5619 52.6454C84.3919 52.6454 83.1974 52.67 81.9788 52.7186C80.8088 52.7186 79.8337 52.7673 79.0538 52.8651V51.4007C80.6625 51.2055 81.8567 50.8394 82.6369 50.3024C83.4654 49.7653 84.0018 48.8867 84.2456 47.6664C84.5381 46.4462 84.6844 44.7622 84.6844 42.6142V8.78644C84.6844 6.98035 84.5381 5.66238 84.2456 4.83254C84.0018 3.9539 83.4654 3.36814 82.6369 3.07526C81.8567 2.73356 80.6625 2.53831 79.0538 2.4895V1.02509C79.8337 1.0739 80.8088 1.12271 81.9788 1.17153C83.1974 1.22034 84.3919 1.24475 85.5619 1.24475C86.6829 1.24475 87.7798 1.22034 88.8525 1.17153C89.9249 1.12271 90.8755 1.0739 91.7044 1.02509L119.126 37.562V11.8617C119.126 9.46984 118.98 7.63933 118.687 6.37017C118.395 5.101 117.761 4.17356 116.786 3.5878C115.811 3.00203 114.275 2.63593 112.179 2.4895V1.02509C113.105 1.0739 114.3 1.12271 115.762 1.17153C117.274 1.22034 118.663 1.24475 119.931 1.24475C121.149 1.24475 122.344 1.22034 123.514 1.17153C124.732 1.12271 125.707 1.0739 126.439 1.02509Z" fill="#2C3842"/>
<path d="M156.565 0C161.537 0 165.9 1.04949 169.654 3.14848C173.408 5.24745 176.309 8.2739 178.356 12.2278C180.452 16.1329 181.501 20.8922 181.501 26.5058C181.501 31.9729 180.428 36.7566 178.283 40.8569C176.187 44.9573 173.237 48.1545 169.435 50.4488C165.681 52.7432 161.367 53.8902 156.492 53.8902C151.519 53.8902 147.156 52.8406 143.402 50.7417C139.649 48.6428 136.724 45.6163 134.627 41.6624C132.58 37.7085 131.556 32.9492 131.556 27.3844C131.556 21.9173 132.629 17.1336 134.773 13.0332C136.919 8.93288 139.868 5.73561 143.622 3.44136C147.375 1.14712 151.69 0 156.565 0ZM156.272 1.31797C153.396 1.31797 150.885 2.41627 148.74 4.61288C146.644 6.80949 145.011 9.83594 143.841 13.6922C142.671 17.5485 142.086 22.0149 142.086 27.0915C142.086 32.2657 142.744 36.7811 144.061 40.6373C145.377 44.4447 147.156 47.3981 149.399 49.4969C151.641 51.5471 154.103 52.5722 156.784 52.5722C159.66 52.5722 162.147 51.4739 164.243 49.2773C166.388 47.0807 168.045 44.0541 169.215 40.198C170.385 36.2929 170.971 31.8264 170.971 26.7986C170.971 21.5756 170.312 17.0603 168.996 13.2529C167.68 9.44542 165.9 6.51661 163.658 4.46644C161.464 2.36746 159.002 1.31797 156.272 1.31797Z" fill="#2C3842"/>
<path d="M49.9216 55.9403V57.4047C48.9465 57.7463 47.8741 58.5276 46.7041 59.7478C45.5341 60.9193 44.4858 62.7744 43.5597 65.3125L27.5452 108C27.2527 108 26.9358 107.975 26.5946 107.927C26.3021 107.927 25.9852 107.927 25.644 107.927C25.3027 107.927 24.9614 107.927 24.6202 107.927C24.3277 107.975 24.0352 108 23.7427 108L5.38838 62.0908C4.65714 60.2849 3.85276 59.0643 2.97527 58.4298C2.14652 57.7954 1.36652 57.4534 0.635272 57.4047V55.9403C1.90277 55.989 3.43839 56.0381 5.24213 56.0868C7.09464 56.1355 8.89838 56.16 10.6534 56.16C12.7984 56.16 14.7971 56.1355 16.6496 56.0868C18.5509 56.0381 20.0621 55.989 21.1833 55.9403V57.4047C19.5746 57.4534 18.3315 57.6489 17.454 57.9905C16.6252 58.2834 16.1621 58.8691 16.0646 59.7478C15.9671 60.5777 16.2352 61.8467 16.869 63.5553L30.3239 98.1885L28.9346 99.8725L39.9035 70.5844C41.1221 67.314 41.7316 64.7268 41.7316 62.8231C41.7316 60.9193 41.1952 59.5527 40.1229 58.7227C39.0501 57.8928 37.5145 57.4534 35.5158 57.4047V55.9403C37.1247 55.989 38.6359 56.0381 40.0497 56.0868C41.5122 56.1355 42.9502 56.16 44.3641 56.16C45.5341 56.16 46.5578 56.1355 47.4353 56.0868C48.3615 56.0381 49.1903 55.989 49.9216 55.9403Z" fill="#2C3842"/>
<path d="M69.8832 55.7207L87.6525 101.63C88.3838 103.387 89.164 104.607 89.9925 105.291C90.87 105.925 91.6744 106.267 92.4056 106.316V107.78C91.1384 107.683 89.6028 107.634 87.7988 107.634C86.0438 107.585 84.2402 107.561 82.3875 107.561C80.2428 107.561 78.2439 107.585 76.3913 107.634C74.5391 107.634 73.0276 107.683 71.8576 107.78V106.316C74.3438 106.218 75.9284 105.803 76.6107 105.071C77.2933 104.29 77.147 102.655 76.1719 100.165L63.302 65.3858L64.6182 63.7749L52.9182 94.1614C51.9921 96.6022 51.4316 98.6033 51.2364 100.165C51.0415 101.728 51.1632 102.948 51.602 103.826C52.0407 104.705 52.772 105.34 53.7957 105.73C54.8195 106.072 56.0871 106.267 57.5982 106.316V107.78C56.0385 107.683 54.527 107.634 53.0645 107.634C51.602 107.585 50.1395 107.561 48.677 107.561C47.6046 107.561 46.5809 107.585 45.6058 107.634C44.6796 107.634 43.8508 107.683 43.1195 107.78V106.316C44.1922 106.072 45.2401 105.437 46.2639 104.412C47.3366 103.387 48.3604 101.605 49.3351 99.0671L66.0807 55.7207C66.6657 55.7694 67.2997 55.7939 67.9819 55.7939C68.6646 55.7939 69.2982 55.7694 69.8832 55.7207ZM76.245 86.6929V88.1573H54.4539L55.1851 86.6929H76.245Z" fill="#2C3842"/>
<path d="M133.264 55.9403C133.069 58.1856 132.923 60.3822 132.825 62.5302C132.777 64.629 132.752 66.2399 132.752 67.3627C132.752 68.4855 132.777 69.5348 132.825 70.5112C132.874 71.4876 132.923 72.3417 132.972 73.0739H131.29C130.608 69.1687 129.779 66.118 128.804 63.9214C127.829 61.6761 126.537 60.0652 124.928 59.0888C123.368 58.1124 121.296 57.6244 118.712 57.6244H116.372V99.36C116.372 101.361 116.543 102.85 116.884 103.826C117.274 104.803 118.03 105.462 119.151 105.803C120.272 106.096 121.906 106.267 124.05 106.316V107.78C122.588 107.683 120.687 107.634 118.347 107.634C116.007 107.585 113.618 107.561 111.18 107.561C108.646 107.561 106.257 107.585 104.014 107.634C101.82 107.634 100.041 107.683 98.6761 107.78V106.316C100.773 106.267 102.381 106.096 103.502 105.803C104.624 105.462 105.379 104.803 105.769 103.826C106.159 102.85 106.354 101.361 106.354 99.36V57.6244H103.941C101.406 57.6244 99.3342 58.1124 97.7255 59.0888C96.1167 60.0652 94.825 61.6761 93.8498 63.9214C92.8751 66.118 92.0707 69.1687 91.4367 73.0739H89.7549C89.8525 72.3417 89.9011 71.4876 89.9011 70.5112C89.9501 69.5348 89.9742 68.4855 89.9742 67.3627C89.9742 66.2399 89.9256 64.629 89.828 62.5302C89.7794 60.3822 89.6576 58.1856 89.4624 55.9403C91.6075 55.989 93.972 56.0381 96.5555 56.0868C99.1393 56.1355 101.723 56.16 104.307 56.16C106.891 56.16 109.255 56.16 111.4 56.16C113.496 56.16 115.836 56.16 118.42 56.16C121.004 56.16 123.588 56.1355 126.171 56.0868C128.755 56.0381 131.119 55.989 133.264 55.9403Z" fill="#2C3842"/>
<path d="M176.067 55.9403C175.872 57.9418 175.726 59.8942 175.629 61.798C175.58 63.653 175.555 65.0683 175.555 66.0447C175.555 66.9721 175.58 67.8753 175.629 68.7539C175.677 69.5838 175.726 70.2915 175.775 70.8773H174.093C173.703 67.5092 173.069 64.8732 172.192 62.9695C171.314 61.0171 170.12 59.65 168.609 58.8692C167.146 58.0392 165.22 57.6244 162.832 57.6244H158.81C157.347 57.6244 156.226 57.7463 155.446 57.9905C154.666 58.2347 154.13 58.7472 153.837 59.5281C153.594 60.309 153.472 61.5051 153.472 63.1159V100.605C153.472 102.167 153.594 103.363 153.837 104.193C154.13 104.973 154.666 105.486 155.446 105.73C156.226 105.974 157.347 106.096 158.81 106.096H162.978C165.464 106.096 167.536 105.632 169.194 104.705C170.9 103.778 172.265 102.264 173.289 100.165C174.312 98.0175 175.068 95.0887 175.555 91.379H177.237C177.091 92.8921 177.018 94.8449 177.018 97.2366C177.018 98.2617 177.042 99.7506 177.091 101.703C177.189 103.655 177.335 105.681 177.53 107.78C175.044 107.683 172.24 107.634 169.121 107.634C166.001 107.585 163.222 107.561 160.784 107.561C159.663 107.561 158.176 107.561 156.324 107.561C154.52 107.561 152.546 107.585 150.401 107.634C148.304 107.634 146.159 107.658 143.966 107.707C141.82 107.707 139.773 107.732 137.823 107.78V106.316C139.432 106.218 140.626 106.023 141.406 105.73C142.235 105.437 142.771 104.852 143.015 103.973C143.307 103.094 143.454 101.776 143.454 100.019V63.7017C143.454 61.8957 143.307 60.5777 143.015 59.7478C142.771 58.8691 142.235 58.2834 141.406 57.9905C140.626 57.6489 139.432 57.4534 137.823 57.4047V55.9403C139.773 55.989 141.82 56.0381 143.966 56.0868C146.159 56.0868 148.304 56.1113 150.401 56.16C152.546 56.16 154.52 56.16 156.324 56.16C158.176 56.16 159.663 56.16 160.784 56.16C163.027 56.16 165.562 56.16 168.389 56.16C171.266 56.1113 173.825 56.0381 176.067 55.9403ZM164.294 80.9817C164.294 80.9817 164.294 81.2259 164.294 81.7139C164.294 82.2019 164.294 82.4461 164.294 82.4461H151.278C151.278 82.4461 151.278 82.2019 151.278 81.7139C151.278 81.2259 151.278 80.9817 151.278 80.9817H164.294ZM166.415 71.3166C166.22 74.099 166.122 76.2224 166.122 77.6868C166.171 79.1512 166.196 80.4937 166.196 81.7139C166.196 82.9341 166.22 84.2766 166.269 85.741C166.317 87.2054 166.439 89.3288 166.634 92.1112H164.952C164.709 90.4516 164.319 88.8895 163.782 87.4251C163.295 85.912 162.491 84.7159 161.369 83.8373C160.297 82.9099 158.737 82.4461 156.689 82.4461V80.9817C158.2 80.9817 159.419 80.6643 160.346 80.0298C161.321 79.3954 162.101 78.5899 162.686 77.6136C163.271 76.5885 163.709 75.5389 164.002 74.4651C164.343 73.3422 164.587 72.293 164.733 71.3166H166.415Z" fill="#2C3842"/>
<path d="M195.764 105.166C195.764 104.708 195.711 104.298 195.603 103.936C195.492 103.57 195.333 103.263 195.128 103.014C194.923 102.76 194.677 102.567 194.39 102.435C194.102 102.303 193.778 102.238 193.417 102.238C192.681 102.238 192.135 102.479 191.779 102.962C191.423 103.441 191.245 104.141 191.245 105.064V106.96H195.764V105.166ZM201 100.568V101.212C201 101.296 200.988 101.366 200.963 101.425C200.934 101.479 200.883 101.53 200.81 101.579L196.613 104.903C196.559 104.942 196.513 104.983 196.474 105.027C196.435 105.066 196.406 105.113 196.386 105.166C196.362 105.215 196.345 105.276 196.335 105.349C196.325 105.418 196.32 105.503 196.32 105.606V106.96H201V107.714H190.653V105.064C190.653 103.873 190.885 102.982 191.348 102.391C191.806 101.796 192.481 101.498 193.373 101.498C193.768 101.498 194.129 101.566 194.455 101.703C194.782 101.84 195.07 102.037 195.318 102.296C195.562 102.55 195.762 102.86 195.918 103.226C196.074 103.587 196.179 103.995 196.232 104.449C196.305 104.332 196.403 104.227 196.525 104.134L201 100.568Z" fill="#2C3842"/>
<path d="M200.378 88.9345L201 88.9492V95.1582H190.653V88.9492H191.274V94.4041H195.457V89.8644H196.064V94.4041H200.378V88.9345Z" fill="#2C3842"/>
<path d="M197.241 77.4159L192.013 79.5246C191.843 79.5978 191.638 79.6685 191.399 79.7369C191.516 79.7662 191.628 79.7981 191.735 79.8321C191.837 79.8662 191.933 79.9028 192.02 79.942L197.241 82.0507V77.4159ZM201 75.1241V75.7025C201 75.771 200.983 75.827 200.949 75.8709C200.91 75.9148 200.861 75.9489 200.803 75.9734L197.797 77.1889V82.2777L200.803 83.4931C200.856 83.5126 200.903 83.547 200.942 83.5957C200.981 83.6443 201 83.7029 201 83.7714V84.3425L190.653 80.103V79.3635L201 75.1241Z" fill="#2C3842"/>
<path d="M200.364 64.0857H201V69.7457H190.653V68.9915H200.364V64.0857Z" fill="#2C3842"/>
<path d="M191.289 53.3992V57.0383H201V57.7924H191.289V61.4535H190.653V53.3992H191.289Z" fill="#2C3842"/>
<path d="M196.737 44.7944H201V45.5412H196.737L190.653 49.378V48.719C190.653 48.6505 190.67 48.5945 190.704 48.5506C190.733 48.5066 190.777 48.47 190.836 48.4407L195.589 45.4753C195.701 45.412 195.811 45.3534 195.918 45.2996C196.02 45.2458 196.123 45.1996 196.225 45.1605C196.123 45.1213 196.02 45.0774 195.918 45.0287C195.811 44.98 195.701 44.9236 195.589 44.8603L190.836 41.8948C190.782 41.8703 190.738 41.8363 190.704 41.7923C190.67 41.7436 190.653 41.6851 190.653 41.6166V40.9576L196.737 44.7944Z" fill="#2C3842"/>
</svg>
