<svg width="134" height="72" viewBox="0 0 134 72" fill="none" xmlns="http://www.w3.org/2000/svg">
<path d="M14.1862 0.683392V1.65966C13.1462 1.6922 12.35 1.82237 11.7975 2.05017C11.2775 2.24543 10.92 2.63593 10.725 3.22169C10.53 3.77492 10.4325 4.65357 10.4325 5.85763V30.0692C10.4325 31.2407 10.53 32.1193 10.725 32.7051C10.92 33.2908 11.2775 33.6814 11.7975 33.8766C12.35 34.0719 13.1462 34.202 14.1862 34.2671V35.2434C13.3737 35.1782 12.3337 35.1458 11.0662 35.1458C9.79873 35.1133 8.51497 35.097 7.21498 35.097C5.75249 35.097 4.38749 35.1133 3.11999 35.1458C1.8525 35.1458 0.812497 35.1782 0 35.2434V34.2671C1.0725 34.202 1.86875 34.0719 2.38874 33.8766C2.94125 33.6814 3.29873 33.2908 3.46124 32.7051C3.65624 32.1193 3.75374 31.2407 3.75374 30.0692V5.85763C3.75374 4.65357 3.65624 3.77492 3.46124 3.22169C3.29873 2.63593 2.94125 2.24543 2.38874 2.05017C1.86875 1.82237 1.0725 1.6922 0 1.65966V0.683392C0.812497 0.715934 1.8525 0.748475 3.11999 0.781019C4.38749 0.813561 5.75249 0.829831 7.21498 0.829831C8.51497 0.829831 9.79873 0.813561 11.0662 0.781019C12.3337 0.748475 13.3737 0.715934 14.1862 0.683392Z" fill="white"/>
<path d="M49.3963 0.683392V1.65966C48.3562 1.75729 47.5599 2.00136 47.0076 2.39186C46.455 2.74984 46.0813 3.3356 45.8863 4.14915C45.7237 4.93017 45.6426 6.05288 45.6426 7.51729V35.3898C45.3501 35.3574 45.0249 35.341 44.6676 35.341C44.3424 35.341 43.9851 35.3574 43.5951 35.3898L22.6813 6.93153V28.019C22.6813 29.581 22.7788 30.8014 22.9738 31.68C23.1688 32.5262 23.5913 33.1444 24.2413 33.5349C24.9239 33.893 25.9476 34.137 27.3126 34.2671V35.2434C26.6949 35.1782 25.8989 35.1458 24.9239 35.1458C23.9488 35.1133 23.0225 35.097 22.145 35.097C21.365 35.097 20.5688 35.1133 19.7563 35.1458C18.9763 35.1458 18.3263 35.1782 17.8063 35.2434V34.2671C18.8788 34.137 19.675 33.893 20.195 33.5349C20.7475 33.1769 21.105 32.5911 21.2675 31.7776C21.4625 30.9641 21.56 29.8414 21.56 28.4095V5.85763C21.56 4.65357 21.4625 3.77492 21.2675 3.22169C21.105 2.63593 20.7475 2.24543 20.195 2.05017C19.675 1.82237 18.8788 1.6922 17.8063 1.65966V0.683392C18.3263 0.715934 18.9763 0.748475 19.7563 0.781019C20.5688 0.813561 21.365 0.829831 22.145 0.829831C22.8925 0.829831 23.6238 0.813561 24.3388 0.781019C25.0538 0.748475 25.6875 0.715934 26.2401 0.683392L44.5213 25.0414V7.9078C44.5213 6.31323 44.4238 5.09289 44.2288 4.24678C44.0338 3.40067 43.6112 2.78237 42.9613 2.39186C42.3112 2.00136 41.2875 1.75729 39.8901 1.65966V0.683392C40.5075 0.715934 41.3038 0.748475 42.2788 0.781019C43.2862 0.813561 44.2125 0.829831 45.0576 0.829831C45.87 0.829831 46.6663 0.813561 47.4463 0.781019C48.2587 0.748475 48.9088 0.715934 49.3963 0.683392Z" fill="white"/>
<path d="M84.2924 0.683392V1.65966C83.2524 1.75729 82.456 2.00136 81.9037 2.39186C81.3511 2.74984 80.9774 3.3356 80.7824 4.14915C80.6199 4.93017 80.5387 6.05288 80.5387 7.51729V35.3898C80.2462 35.3574 79.921 35.341 79.5637 35.341C79.2385 35.341 78.8812 35.3574 78.4912 35.3898L57.5775 6.93153V28.019C57.5775 29.581 57.675 30.8014 57.87 31.68C58.065 32.5262 58.4874 33.1444 59.1375 33.5349C59.82 33.893 60.8437 34.137 62.2087 34.2671V35.2434C61.5911 35.1782 60.795 35.1458 59.82 35.1458C58.845 35.1133 57.9188 35.097 57.0413 35.097C56.2613 35.097 55.4649 35.1133 54.6525 35.1458C53.8725 35.1458 53.2224 35.1782 52.7025 35.2434V34.2671C53.775 34.137 54.5711 33.893 55.0913 33.5349C55.6436 33.1769 56.0012 32.5911 56.1638 31.7776C56.3588 30.9641 56.4563 29.8414 56.4563 28.4095V5.85763C56.4563 4.65357 56.3588 3.77492 56.1638 3.22169C56.0012 2.63593 55.6436 2.24543 55.0913 2.05017C54.5711 1.82237 53.775 1.6922 52.7025 1.65966V0.683392C53.2224 0.715934 53.8725 0.748475 54.6525 0.781019C55.4649 0.813561 56.2613 0.829831 57.0413 0.829831C57.7886 0.829831 58.5198 0.813561 59.235 0.781019C59.9499 0.748475 60.5837 0.715934 61.1362 0.683392L79.4174 25.0414V7.9078C79.4174 6.31323 79.3199 5.09289 79.1249 4.24678C78.9299 3.40067 78.5073 2.78237 77.8574 2.39186C77.2074 2.00136 76.1836 1.75729 74.7862 1.65966V0.683392C75.4036 0.715934 76.2 0.748475 77.1749 0.781019C78.1824 0.813561 79.1086 0.829831 79.9537 0.829831C80.7661 0.829831 81.5624 0.813561 82.3424 0.781019C83.1549 0.748475 83.8049 0.715934 84.2924 0.683392Z" fill="white"/>
<path d="M104.376 0C107.691 0 110.6 0.699662 113.103 2.09899C115.605 3.4983 117.539 5.51593 118.904 8.15187C120.302 10.7553 121 13.9281 121 17.6705C121 21.3152 120.285 24.5044 118.855 27.238C117.458 29.9715 115.492 32.103 112.957 33.6325C110.454 35.1621 107.578 35.9268 104.328 35.9268C101.013 35.9268 98.104 35.227 95.6014 33.8278C93.0991 32.4286 91.1491 30.4108 89.7514 27.7749C88.3865 25.139 87.704 21.9661 87.704 18.2563C87.704 14.6115 88.4191 11.4224 89.8489 8.68881C91.279 5.95525 93.2454 3.82374 95.7477 2.29424C98.2503 0.764747 101.127 0 104.376 0ZM104.182 0.878644C102.264 0.878644 100.59 1.61085 99.1602 3.07525C97.7628 4.53966 96.6742 6.5573 95.8942 9.12814C95.1142 11.699 94.7239 14.6766 94.7239 18.061C94.7239 21.5105 95.1629 24.5208 96.0404 27.0915C96.9179 29.6298 98.104 31.5987 99.5992 32.998C101.094 34.3647 102.735 35.0481 104.523 35.0481C106.44 35.0481 108.098 34.3159 109.495 32.8515C110.925 31.3871 112.03 29.3694 112.81 26.7986C113.59 24.1952 113.98 21.2176 113.98 17.8658C113.98 14.3837 113.541 11.3736 112.664 8.83525C111.786 6.29695 110.6 4.34441 109.105 2.97763C107.643 1.57831 106.001 0.878644 104.182 0.878644Z" fill="white"/>
<path d="M33.2811 37.2936V38.2698C32.631 38.4975 31.9161 39.0184 31.1361 39.8319C30.3561 40.6129 29.6572 41.8496 29.0398 43.5417L18.3635 72C18.1685 72 17.9572 71.9836 17.7297 71.9512C17.5347 71.9512 17.3235 71.9512 17.096 71.9512C16.8685 71.9512 16.641 71.9512 16.4135 71.9512C16.2185 71.9836 16.0235 72 15.8285 72L3.59226 41.3939C3.10476 40.1899 2.56851 39.3762 1.98351 38.9532C1.43101 38.5303 0.911013 38.3023 0.423515 38.2698V37.2936C1.26851 37.326 2.29226 37.3587 3.49476 37.3912C4.72976 37.4236 5.93225 37.44 7.10225 37.44C8.53225 37.44 9.86473 37.4236 11.0997 37.3912C12.3672 37.3587 13.3747 37.326 14.1222 37.2936V38.2698C13.0497 38.3023 12.221 38.4326 11.636 38.6603C11.0835 38.8556 10.7747 39.2461 10.7097 39.8319C10.6447 40.3852 10.8235 41.2311 11.246 42.3702L20.216 65.459L19.2897 66.5817L26.6023 47.0563C27.4147 44.876 27.8211 43.1512 27.8211 41.882C27.8211 40.6129 27.4635 39.7018 26.7486 39.1485C26.0334 38.5952 25.0097 38.3023 23.6772 38.2698V37.2936C24.7498 37.326 25.7572 37.3587 26.6998 37.3912C27.6748 37.4236 28.6335 37.44 29.5761 37.44C30.3561 37.44 31.0386 37.4236 31.6236 37.3912C32.241 37.3587 32.7936 37.326 33.2811 37.2936Z" fill="white"/>
<path d="M46.5888 37.1471L58.435 67.7532C58.9225 68.9248 59.4427 69.7382 59.995 70.1939C60.58 70.6169 61.1163 70.8448 61.6038 70.8773V71.8536C60.7589 71.7884 59.7352 71.7559 58.5325 71.7559C57.3625 71.7235 56.1601 71.7071 54.925 71.7071C53.4952 71.7071 52.1626 71.7235 50.9275 71.7559C49.6927 71.7559 48.685 71.7884 47.905 71.8536V70.8773C49.5625 70.8121 50.6189 70.5356 51.0738 70.0475C51.5289 69.5269 51.4314 68.4366 50.7813 66.777L42.2013 43.5905L43.0788 42.5166L35.2788 62.7742C34.6614 64.4014 34.2877 65.7355 34.1576 66.777C34.0277 67.8184 34.1088 68.6319 34.4013 69.2176C34.6938 69.8034 35.1813 70.2264 35.8638 70.4868C36.5463 70.7145 37.3914 70.8448 38.3988 70.8773V71.8536C37.359 71.7884 36.3513 71.7559 35.3763 71.7559C34.4013 71.7235 33.4263 71.7071 32.4513 71.7071C31.7364 71.7071 31.0539 71.7235 30.4038 71.7559C29.7864 71.7559 29.2338 71.7884 28.7463 71.8536V70.8773C29.4615 70.7145 30.1601 70.2915 30.8426 69.6081C31.5577 68.9248 32.2402 67.7369 32.8901 66.0447L44.0538 37.1471C44.4438 37.1796 44.8665 37.1959 45.3213 37.1959C45.7764 37.1959 46.1988 37.1796 46.5888 37.1471ZM50.83 57.7953V58.7715H36.3026L36.7901 57.7953H50.83Z" fill="white"/>
<path d="M88.8428 37.2936C88.7128 38.7904 88.6153 40.2548 88.5502 41.6868C88.5178 43.086 88.5015 44.1599 88.5015 44.9085C88.5015 45.657 88.5178 46.3565 88.5502 47.0075C88.5829 47.6584 88.6153 48.2278 88.6478 48.7159H87.5265C87.0717 46.1125 86.5191 44.0786 85.869 42.6142C85.2192 41.1174 84.3578 40.0435 83.2853 39.3925C82.2454 38.7416 80.8641 38.4163 79.1415 38.4163H77.5815V66.24C77.5815 67.5743 77.6954 68.5667 77.9228 69.2176C78.1829 69.8686 78.6867 70.3079 79.434 70.5356C80.1816 70.7309 81.2704 70.8448 82.7003 70.8773V71.8536C81.7253 71.7884 80.4578 71.7559 78.8978 71.7559C77.3378 71.7235 75.7454 71.7071 74.1203 71.7071C72.4304 71.7071 70.838 71.7235 69.3428 71.7559C67.8803 71.7559 66.6942 71.7884 65.7841 71.8536V70.8773C67.1817 70.8448 68.2542 70.7309 69.0016 70.5356C69.7491 70.3079 70.253 69.8686 70.5128 69.2176C70.7729 68.5667 70.9028 67.5743 70.9028 66.24V38.4163H69.294C67.6041 38.4163 66.2228 38.7416 65.1503 39.3925C64.0778 40.0435 63.2166 41.1174 62.5666 42.6142C61.9167 44.0786 61.3805 46.1125 60.9578 48.7159H59.8366C59.9017 48.2278 59.9341 47.6584 59.9341 47.0075C59.9667 46.3565 59.9828 45.657 59.9828 44.9085C59.9828 44.1599 59.9504 43.086 59.8853 41.6868C59.8529 40.2548 59.7717 38.7904 59.6416 37.2936C61.0717 37.326 62.648 37.3587 64.3703 37.3912C66.0929 37.4236 67.8155 37.44 69.5378 37.44C71.2604 37.44 72.8367 37.44 74.2665 37.44C75.6642 37.44 77.2242 37.44 78.9465 37.44C80.6691 37.44 82.3917 37.4236 84.114 37.3912C85.8366 37.3587 87.4129 37.326 88.8428 37.2936Z" fill="white"/>
<path d="M117.378 37.2936C117.248 38.6279 117.151 39.9295 117.086 41.1986C117.053 42.4353 117.037 43.3789 117.037 44.0298C117.037 44.6481 117.053 45.2502 117.086 45.8359C117.118 46.3892 117.151 46.861 117.183 47.2515H116.062C115.802 45.0061 115.38 43.2488 114.795 41.9797C114.21 40.678 113.413 39.7667 112.406 39.2461C111.431 38.6928 110.147 38.4163 108.555 38.4163H105.873C104.898 38.4163 104.151 38.4975 103.631 38.6603C103.111 38.8231 102.753 39.1648 102.558 39.6854C102.396 40.206 102.315 41.0034 102.315 42.0773V67.0698C102.315 68.1113 102.396 68.9084 102.558 69.4617C102.753 69.9823 103.111 70.324 103.631 70.4868C104.151 70.6496 104.898 70.7308 105.873 70.7308H108.652C110.31 70.7308 111.691 70.4216 112.796 69.8034C113.933 69.1852 114.843 68.1762 115.526 66.777C116.208 65.345 116.712 63.3925 117.037 60.9193H118.158C118.061 61.9281 118.012 63.2299 118.012 64.8244C118.012 65.5078 118.028 66.5004 118.061 67.802C118.126 69.1036 118.223 70.4543 118.353 71.8536C116.696 71.7884 114.827 71.7559 112.747 71.7559C110.667 71.7235 108.815 71.7071 107.19 71.7071C106.442 71.7071 105.451 71.7071 104.216 71.7071C103.013 71.7071 101.697 71.7235 100.267 71.7559C98.8696 71.7559 97.4395 71.7723 95.9771 71.8047C94.547 71.8047 93.182 71.8211 91.8821 71.8536V70.8773C92.9546 70.8121 93.7509 70.682 94.2708 70.4868C94.8234 70.2915 95.1807 69.901 95.3433 69.3153C95.5383 68.7295 95.6358 67.8509 95.6358 66.6793V42.4678C95.6358 41.2638 95.5383 40.3852 95.3433 39.8319C95.1807 39.2461 94.8234 38.8556 94.2708 38.6603C93.7509 38.4326 92.9546 38.3023 91.8821 38.2698V37.2936C93.182 37.326 94.547 37.3587 95.9771 37.3912C97.4395 37.3912 98.8696 37.4075 100.267 37.44C101.697 37.44 103.013 37.44 104.216 37.44C105.451 37.44 106.442 37.44 107.19 37.44C108.684 37.44 110.375 37.44 112.26 37.44C114.177 37.4075 115.883 37.3587 117.378 37.2936ZM109.53 53.9878C109.53 53.9878 109.53 54.1506 109.53 54.4759C109.53 54.8013 109.53 54.9641 109.53 54.9641H100.852C100.852 54.9641 100.852 54.8013 100.852 54.4759C100.852 54.1506 100.852 53.9878 100.852 53.9878H109.53ZM110.943 47.5444C110.813 49.3993 110.748 50.8149 110.748 51.7912C110.781 52.7675 110.797 53.6625 110.797 54.4759C110.797 55.2894 110.813 56.1844 110.846 57.1607C110.878 58.137 110.96 59.5525 111.09 61.4075H109.968C109.806 60.3011 109.546 59.2597 109.188 58.2834C108.863 57.2747 108.327 56.4773 107.58 55.8915C106.865 55.2733 105.825 54.9641 104.46 54.9641V53.9878C105.467 53.9878 106.28 53.7762 106.897 53.3532C107.547 52.9303 108.067 52.3933 108.457 51.7424C108.847 51.059 109.14 50.3592 109.335 49.6434C109.562 48.8948 109.725 48.1953 109.822 47.5444H110.943Z" fill="white"/>
<path d="M130.51 70.1109C130.51 69.8051 130.474 69.5317 130.402 69.2908C130.328 69.0468 130.222 68.8418 130.085 68.6758C129.949 68.5067 129.785 68.378 129.593 68.2902C129.401 68.2023 129.185 68.1584 128.945 68.1584C128.454 68.1584 128.09 68.3195 127.853 68.6416C127.615 68.9606 127.497 69.4275 127.497 70.0426V71.3068H130.51V70.1109ZM134 67.0454V67.475C134 67.5304 133.992 67.5775 133.976 67.6165C133.956 67.6524 133.922 67.6866 133.873 67.719L131.075 69.9352C131.039 69.9613 131.008 69.9889 130.982 70.0182C130.957 70.0443 130.937 70.075 130.924 70.1109C130.908 70.1434 130.896 70.1841 130.89 70.233C130.883 70.2786 130.88 70.3355 130.88 70.4038V71.3068H134V71.8096H127.102V70.0426C127.102 69.2486 127.256 68.6546 127.565 68.2609C127.871 67.8638 128.321 67.6654 128.915 67.6654C129.179 67.6654 129.419 67.711 129.637 67.802C129.855 67.8931 130.046 68.0249 130.212 68.1974C130.375 68.3666 130.508 68.5733 130.612 68.8174C130.716 69.0583 130.786 69.3299 130.822 69.6325C130.87 69.5544 130.935 69.4844 131.017 69.4226L134 67.0454Z" fill="white"/>
<path d="M133.586 59.2897L134 59.2994V63.4388H127.102V59.2994H127.516V62.9361H130.305V59.9096H130.709V62.9361H133.586V59.2897Z" fill="white"/>
<path d="M131.494 51.6106L128.009 53.0164C127.895 53.0652 127.759 53.1123 127.599 53.158C127.677 53.1775 127.752 53.1987 127.823 53.2214C127.892 53.2441 127.955 53.2685 128.014 53.2946L131.494 54.7005V51.6106ZM134 50.0827V50.4683C134 50.514 133.989 50.5513 133.966 50.5806C133.94 50.6099 133.907 50.6326 133.868 50.649L131.865 51.4593V54.8518L133.868 55.6621C133.904 55.675 133.935 55.698 133.961 55.7304C133.987 55.7629 134 55.802 134 55.8476V56.2283L127.102 53.402V52.909L134 50.0827Z" fill="white"/>
<path d="M133.576 42.7238H134V46.4971H127.102V45.9943H133.576V42.7238Z" fill="white"/>
<path d="M127.526 35.5995V38.0255H134V38.5283H127.526V40.969H127.102V35.5995H127.526Z" fill="white"/>
<path d="M131.158 29.8629H134V30.3608H131.158L127.102 32.9186V32.4793C127.102 32.4337 127.113 32.3963 127.136 32.3671C127.156 32.3378 127.185 32.3134 127.224 32.2938L130.393 30.3169C130.467 30.2747 130.54 30.2356 130.612 30.1997C130.68 30.1639 130.748 30.1331 130.817 30.107C130.748 30.0809 130.68 30.0516 130.612 30.0191C130.54 29.9867 130.467 29.9491 130.393 29.9068L127.224 27.9299C127.188 27.9135 127.159 27.8908 127.136 27.8616C127.113 27.8291 127.102 27.79 127.102 27.7444V27.3051L131.158 29.8629Z" fill="white"/>
</svg>
