<svg width="94" height="73" viewBox="0 0 94 73" fill="none" xmlns="http://www.w3.org/2000/svg">
<path d="M10.4384 13.9876H14.5475C14.4936 15.5263 14.1775 16.8266 13.6147 17.8884C13.0519 18.9501 12.2424 19.7503 11.2094 20.2889C10.1686 20.8352 8.912 21.1044 7.44722 21.1044C6.30624 21.1044 5.29632 20.9121 4.40974 20.5351C3.52317 20.1581 2.76765 19.5964 2.15091 18.8501C1.52645 18.1038 1.05618 17.1882 0.747806 16.0957C0.431723 15.0032 0.277536 13.7414 0.277536 12.3103V8.82494C0.277536 7.39387 0.447142 6.13206 0.778643 5.03183C1.11015 3.9316 1.59583 3.00833 2.22029 2.26202C2.84475 1.5157 3.60797 0.954047 4.49455 0.569351C5.38112 0.184654 6.39104 0 7.5089 0C9.00451 0 10.2611 0.276981 11.2711 0.838638C12.281 1.4003 13.0596 2.21585 13.607 3.3007C14.1544 4.38554 14.4936 5.7012 14.6015 7.24768H10.477C10.4462 6.27055 10.3382 5.50116 10.1455 4.9395C9.95276 4.37785 9.64439 3.98546 9.23579 3.75464C8.81949 3.52382 8.24899 3.40841 7.5089 3.40841C6.96153 3.40841 6.49127 3.50843 6.09809 3.70078C5.70491 3.89313 5.38112 4.20089 5.12671 4.62405C4.8723 5.04722 4.68728 5.60118 4.57164 6.28594C4.456 6.9707 4.39432 7.80934 4.39432 8.79416V12.3026C4.39432 13.272 4.44829 14.0953 4.54851 14.78C4.64873 15.4648 4.81834 16.0188 5.04191 16.4496C5.26548 16.8805 5.57385 17.1959 5.96703 17.396C6.36021 17.596 6.8536 17.6883 7.45493 17.6883C8.14877 17.6883 8.71156 17.5883 9.14328 17.3806C9.575 17.1728 9.89108 16.8035 10.0992 16.265C10.3074 15.7264 10.423 14.9647 10.4539 13.9799L10.4384 13.9876Z" fill="white"/>
<path d="M23.0201 21.1121C21.9716 21.1121 21.0465 20.9506 20.2447 20.6351C19.443 20.312 18.7568 19.8503 18.2018 19.2502C17.6467 18.6424 17.2227 17.9115 16.9297 17.0421C16.6368 16.1803 16.4903 15.1878 16.4903 14.0799V12.8258C16.4903 11.5871 16.6291 10.4945 16.9143 9.56355C17.1995 8.63259 17.6004 7.84011 18.117 7.20152C18.6335 6.56292 19.2734 6.0859 20.0289 5.77045C20.7844 5.455 21.6478 5.30112 22.6038 5.30112C23.5597 5.30112 24.4078 5.46269 25.1402 5.77045C25.8726 6.0859 26.4739 6.55523 26.9519 7.17844C27.4298 7.80164 27.7922 8.57873 28.0389 9.49431C28.2856 10.4176 28.4089 11.487 28.4089 12.7104V14.5184H18.1632V11.7409H24.5234V11.387C24.5234 10.7638 24.4617 10.2483 24.323 9.82515C24.1919 9.40968 23.9838 9.09422 23.6985 8.88649C23.4133 8.67875 23.0355 8.57873 22.5652 8.57873C22.1721 8.57873 21.8329 8.65567 21.563 8.81724C21.2932 8.97882 21.0696 9.22502 20.9154 9.56355C20.7535 9.90209 20.6379 10.3406 20.5608 10.8792C20.4837 11.4178 20.4452 12.0641 20.4452 12.8181V14.0722C20.4452 14.78 20.5068 15.3648 20.6302 15.8418C20.7535 16.3188 20.9309 16.7035 21.1776 16.9959C21.4243 17.2883 21.7095 17.5037 22.0641 17.6268C22.4188 17.7499 22.8197 17.8191 23.2822 17.8191C23.9761 17.8191 24.6082 17.696 25.171 17.4421C25.7338 17.1959 26.2118 16.8497 26.6049 16.4188L28.1854 18.8193C27.9155 19.1733 27.5378 19.5349 27.0521 19.8888C26.5741 20.2427 25.9959 20.5351 25.3252 20.7659C24.6545 20.9967 23.8835 21.1044 23.0047 21.1044L23.0201 21.1121Z" fill="white"/>
<path d="M34.5764 8.82494V20.8275H30.6061V5.5704H34.3066L34.5764 8.82494ZM33.9905 12.6796L32.9266 12.7104C32.9112 11.564 33.0191 10.533 33.2581 9.62511C33.4971 8.71722 33.844 7.93244 34.2912 7.29384C34.7383 6.65525 35.2702 6.15514 35.8947 5.81661C36.5191 5.47038 37.2207 5.30112 37.9993 5.30112C38.593 5.30112 39.1403 5.40114 39.6337 5.60887C40.1271 5.81661 40.5511 6.14745 40.9135 6.5937C41.2681 7.04764 41.5456 7.64007 41.7461 8.38638C41.9465 9.125 42.039 10.0483 42.039 11.1331V20.8352H38.0687V11.1023C38.0687 10.4407 38.0071 9.93286 37.8683 9.57125C37.7372 9.20963 37.5445 8.95573 37.2824 8.80955C37.0203 8.66336 36.6888 8.59412 36.2879 8.59412C35.9101 8.59412 35.5786 8.69414 35.2857 8.90188C34.9927 9.10961 34.7537 9.39429 34.561 9.77129C34.3682 10.1406 34.2218 10.5792 34.1215 11.0793C34.0213 11.5794 33.9751 12.1102 33.9905 12.6873V12.6796Z" fill="white"/>
<path d="M51.4522 5.5704V8.54796H43.6503V5.5704H51.4522ZM45.4466 1.80807H49.386V16.1803C49.386 16.5958 49.4246 16.919 49.5171 17.1421C49.6019 17.3729 49.733 17.5345 49.9026 17.6191C50.0799 17.7114 50.3035 17.7499 50.5887 17.7499C50.7968 17.7499 50.9819 17.7345 51.1515 17.7114C51.3211 17.6883 51.4444 17.6653 51.5369 17.6345V20.7198C51.2286 20.8429 50.8971 20.9352 50.5579 21.0044C50.2109 21.066 49.8101 21.1044 49.3398 21.1044C48.5457 21.1044 47.8596 20.9583 47.2814 20.6582C46.7032 20.3658 46.2561 19.8811 45.9323 19.2117C45.6085 18.5424 45.4543 17.673 45.4543 16.5881V1.80807H45.4466Z" fill="white"/>
<path d="M59.5161 21.1121C58.4677 21.1121 57.5425 20.9506 56.7408 20.6351C55.939 20.312 55.2529 19.8503 54.6978 19.2502C54.1427 18.6424 53.7187 17.9115 53.4257 17.0421C53.1328 16.1803 52.9863 15.1878 52.9863 14.0799V12.8258C52.9863 11.5871 53.1251 10.4945 53.4103 9.56355C53.6956 8.63259 54.0965 7.84011 54.613 7.20152C55.1295 6.56292 55.7694 6.0859 56.5249 5.77045C57.2804 5.455 58.1439 5.30112 59.0998 5.30112C60.0558 5.30112 60.9038 5.46269 61.6362 5.77045C62.3686 6.0859 62.9699 6.55523 63.4479 7.17844C63.9259 7.80164 64.2882 8.57873 64.5349 9.49431C64.7816 10.4176 64.905 11.487 64.905 12.7104V14.5184H54.6592V11.7409H61.0194V11.387C61.0194 10.7638 60.9578 10.2483 60.819 9.82515C60.6879 9.40968 60.4798 9.09422 60.1945 8.88649C59.9093 8.67875 59.5315 8.57873 59.0613 8.57873C58.6681 8.57873 58.3289 8.65567 58.0591 8.81724C57.7892 8.97882 57.5657 9.22502 57.4115 9.56355C57.2496 9.90209 57.1339 10.3406 57.0568 10.8792C56.9797 11.4178 56.9412 12.0641 56.9412 12.8181V14.0722C56.9412 14.78 57.0029 15.3648 57.1262 15.8418C57.2496 16.3188 57.4269 16.7035 57.6736 16.9959C57.9203 17.2883 58.2055 17.5037 58.5602 17.6268C58.9148 17.7499 59.3157 17.8191 59.7782 17.8191C60.4721 17.8191 61.1042 17.696 61.667 17.4421C62.2298 17.1959 62.7078 16.8497 63.101 16.4188L64.6814 18.8193C64.4116 19.1733 64.0338 19.5349 63.5481 19.8888C63.0701 20.2427 62.4919 20.5351 61.8212 20.7659C61.1505 20.9967 60.3796 21.1044 59.5007 21.1044L59.5161 21.1121Z" fill="white"/>
<path d="M71.1033 8.97112V20.8275H67.1484V5.5704H70.8797L71.1033 8.97112ZM74.7035 5.455L74.6496 9.38659C74.4722 9.34812 74.2564 9.31735 74.0097 9.30196C73.763 9.28657 73.5394 9.27118 73.3544 9.27118C72.9072 9.27118 72.5372 9.34043 72.2211 9.47892C71.905 9.61741 71.6506 9.81745 71.4502 10.0867C71.2497 10.356 71.0956 10.6869 70.9876 11.0793C70.8874 11.4716 70.8257 11.9179 70.8026 12.418L70.0548 12.1333C70.0548 11.1408 70.1319 10.2252 70.2861 9.39429C70.4403 8.56334 70.6715 7.84011 70.9876 7.2246C71.296 6.60909 71.6738 6.13206 72.1132 5.79353C72.5526 5.455 73.046 5.28573 73.6011 5.28573C73.7938 5.28573 73.9865 5.30112 74.2024 5.33189C74.4183 5.36267 74.5802 5.40114 74.7035 5.455Z" fill="white"/>
<path d="M9.33601 38.5081C9.33601 38.1388 9.30518 37.808 9.23579 37.5079C9.16641 37.2078 9.02764 36.9309 8.81949 36.677C8.61133 36.4231 8.30296 36.1692 7.90208 35.9153C7.50119 35.6614 6.98466 35.3998 6.34479 35.1228C5.58156 34.7996 4.84147 34.4611 4.1245 34.0995C3.40753 33.7379 2.75994 33.3147 2.18945 32.8377C1.61896 32.3607 1.16411 31.7913 0.824899 31.1373C0.493398 30.4833 0.323792 29.714 0.323792 28.8292C0.323792 27.9444 0.477979 27.1827 0.794062 26.4748C1.11015 25.767 1.55729 25.1668 2.1432 24.659C2.72911 24.1589 3.41524 23.7665 4.20159 23.4973C4.98794 23.228 5.86681 23.0895 6.83819 23.0895C8.15648 23.0895 9.29747 23.3588 10.2611 23.905C11.2248 24.4513 11.9726 25.1976 12.5046 26.144C13.0365 27.0903 13.3063 28.1829 13.3063 29.4139H9.18183C9.18183 28.8292 9.09702 28.3137 8.93513 27.8674C8.77323 27.4212 8.51111 27.0672 8.14877 26.8133C7.79415 26.5594 7.33158 26.4286 6.76109 26.4286C6.23686 26.4286 5.79743 26.5364 5.4505 26.7441C5.10358 26.9595 4.84918 27.2442 4.68728 27.6058C4.52538 27.9674 4.44058 28.3752 4.44058 28.8292C4.44058 29.1677 4.52538 29.4677 4.68728 29.737C4.84918 30.0063 5.08046 30.2448 5.37341 30.4526C5.66637 30.668 6.01329 30.868 6.41417 31.0681C6.81506 31.2681 7.25449 31.4605 7.73247 31.6451C8.6653 32.0144 9.4902 32.4145 10.2072 32.8531C10.9241 33.2916 11.5178 33.7763 12.0034 34.3226C12.4814 34.8612 12.8438 35.469 13.0905 36.1461C13.3372 36.8231 13.4605 37.5925 13.4605 38.462C13.4605 39.3314 13.314 40.0931 13.0134 40.7932C12.7127 41.4934 12.2887 42.0935 11.7182 42.6013C11.1477 43.1091 10.4693 43.4938 9.67522 43.7631C8.88116 44.0324 7.99459 44.1708 7.00779 44.1708C6.021 44.1708 5.15755 44.0401 4.30952 43.7708C3.46149 43.5015 2.71369 43.0937 2.0661 42.5474C1.41852 42.0012 0.917412 41.301 0.547363 40.447C0.177315 39.593 0 38.5851 0 37.4233H4.13992C4.13992 38.0465 4.20159 38.5697 4.32494 39.0082C4.44829 39.4468 4.63331 39.793 4.88772 40.0546C5.14213 40.3162 5.45821 40.5085 5.82826 40.6316C6.19831 40.7547 6.63003 40.824 7.10801 40.824C7.65538 40.824 8.0871 40.724 8.4186 40.5162C8.74239 40.3085 8.97367 40.0315 9.12015 39.6853C9.25892 39.3391 9.3283 38.939 9.3283 38.5004L9.33601 38.5081Z" fill="white"/>
<path d="M22.8659 28.6522V31.6297H15.0641V28.6522H22.8659ZM16.8603 24.8899H20.7998V39.2621C20.7998 39.6776 20.8384 40.0007 20.9309 40.2239C21.0157 40.4547 21.1467 40.6163 21.3163 40.7009C21.4936 40.7932 21.7172 40.8317 22.0025 40.8317C22.2106 40.8317 22.3956 40.8163 22.5652 40.7932C22.7348 40.7701 22.8582 40.747 22.9507 40.7163V43.8015C22.6423 43.9246 22.3108 44.017 21.9716 44.0862C21.6247 44.1478 21.2238 44.1862 20.7535 44.1862C19.9595 44.1862 19.2734 44.0401 18.6952 43.74C18.117 43.4476 17.6698 42.9629 17.346 42.2935C17.0222 41.6242 16.868 40.7547 16.868 39.6699V24.8745L16.8603 24.8899Z" fill="white"/>
<path d="M28.9717 32.0529V43.9093H25.0168V28.6522H28.7481L28.9717 32.0529ZM32.5797 28.5368L32.5257 32.4684C32.3484 32.4299 32.1325 32.3991 31.8858 32.3837C31.6391 32.3684 31.4156 32.353 31.2305 32.353C30.7834 32.353 30.4134 32.4222 30.0973 32.5607C29.7812 32.6992 29.5268 32.8992 29.3263 33.1685C29.1259 33.4378 28.9717 33.7687 28.8638 34.161C28.7636 34.5534 28.7019 34.9997 28.6787 35.4998L27.9309 35.2151C27.9309 34.2226 28.008 33.307 28.1622 32.4761C28.3164 31.6451 28.5477 30.9219 28.8638 30.3064C29.1721 29.6909 29.5499 29.2138 29.9893 28.8753C30.4288 28.5368 30.9222 28.3675 31.4772 28.3675C31.67 28.3675 31.8627 28.3829 32.0786 28.4137C32.2944 28.4445 32.4563 28.4829 32.5797 28.5368Z" fill="white"/>
<path d="M40.5434 44.1939C39.495 44.1939 38.5698 44.0324 37.7681 43.7169C36.9663 43.3938 36.2802 42.9321 35.7251 42.332C35.17 41.7242 34.746 40.9933 34.453 40.1238C34.1601 39.2621 34.0136 38.2696 34.0136 37.1617V35.9076C34.0136 34.6688 34.1524 33.5763 34.4376 32.6453C34.7229 31.7144 35.1238 30.9219 35.6403 30.2833C36.1568 29.6447 36.7967 29.1677 37.5522 28.8522C38.3077 28.5368 39.1712 28.3829 40.1271 28.3829C41.0831 28.3829 41.9311 28.5445 42.6635 28.8522C43.3959 29.1677 43.9972 29.637 44.4752 30.2602C44.9532 30.8834 45.3155 31.6605 45.5622 32.5761C45.8089 33.4994 45.9323 34.5688 45.9323 35.7922V37.6002H35.6865V34.8227H42.0467V34.4688C42.0467 33.8456 41.9851 33.3301 41.8463 32.9069C41.7152 32.4915 41.5071 32.176 41.2218 31.9683C40.9366 31.7605 40.5588 31.6605 40.0886 31.6605C39.6954 31.6605 39.3562 31.7375 39.0864 31.899C38.8165 32.0606 38.593 32.3068 38.4388 32.6453C38.2769 32.9839 38.1612 33.4224 38.0841 33.961C38.0071 34.4996 37.9685 35.1459 37.9685 35.8999V37.154C37.9685 37.8618 38.0302 38.4466 38.1535 38.9236C38.2769 39.4006 38.4542 39.7853 38.7009 40.0777C38.9476 40.37 39.2328 40.5855 39.5875 40.7086C39.9421 40.8317 40.343 40.9009 40.8055 40.9009C41.4994 40.9009 42.1315 40.7778 42.6943 40.5239C43.2571 40.2777 43.7351 39.9315 44.1283 39.5006L45.7087 41.9011C45.4389 42.2551 45.0611 42.6167 44.5754 42.9706C44.0974 43.3245 43.5192 43.6169 42.8485 43.8477C42.1778 44.0785 41.4069 44.1862 40.528 44.1862L40.5434 44.1939Z" fill="white"/>
<path d="M54.2275 44.1939C53.179 44.1939 52.2539 44.0324 51.4522 43.7169C50.6504 43.3938 49.9642 42.9321 49.4092 42.332C48.8541 41.7242 48.4301 40.9933 48.1371 40.1238C47.8442 39.2621 47.6977 38.2696 47.6977 37.1617V35.9076C47.6977 34.6688 47.8365 33.5763 48.1217 32.6453C48.407 31.7144 48.8078 30.9219 49.3244 30.2833C49.8409 29.6447 50.4808 29.1677 51.2363 28.8522C51.9918 28.5368 52.8552 28.3829 53.8112 28.3829C54.7672 28.3829 55.6152 28.5445 56.3476 28.8522C57.08 29.1677 57.6813 29.637 58.1593 30.2602C58.6373 30.8834 58.9996 31.6605 59.2463 32.5761C59.493 33.4994 59.6163 34.5688 59.6163 35.7922V37.6002H49.3706V34.8227H55.7308V34.4688C55.7308 33.8456 55.6692 33.3301 55.5304 32.9069C55.3993 32.4915 55.1912 32.176 54.9059 31.9683C54.6207 31.7605 54.2429 31.6605 53.7727 31.6605C53.3795 31.6605 53.0403 31.7375 52.7704 31.899C52.5006 32.0606 52.277 32.3068 52.1229 32.6453C51.961 32.9839 51.8453 33.4224 51.7682 33.961C51.6911 34.4996 51.6526 35.1459 51.6526 35.8999V37.154C51.6526 37.8618 51.7143 38.4466 51.8376 38.9236C51.961 39.4006 52.1383 39.7853 52.385 40.0777C52.6317 40.37 52.9169 40.5855 53.2715 40.7086C53.6262 40.8317 54.0271 40.9009 54.4896 40.9009C55.1835 40.9009 55.8156 40.7778 56.3784 40.5239C56.9412 40.2777 57.4192 39.9315 57.8124 39.5006L59.3928 41.9011C59.1229 42.2551 58.7452 42.6167 58.2595 42.9706C57.7815 43.3245 57.2033 43.6169 56.5326 43.8477C55.8619 44.0785 55.091 44.1862 54.2121 44.1862L54.2275 44.1939Z" fill="white"/>
<path d="M68.5592 28.6522V31.6297H60.7573V28.6522H68.5592ZM62.5536 24.8899H66.4931V39.2621C66.4931 39.6776 66.5316 40.0007 66.6241 40.2239C66.7089 40.4547 66.84 40.6163 67.0096 40.7009C67.1869 40.7932 67.4105 40.8317 67.6957 40.8317C67.9039 40.8317 68.0889 40.8163 68.2585 40.7932C68.4281 40.7701 68.5515 40.747 68.644 40.7163V43.8015C68.3356 43.9246 68.0041 44.017 67.6649 44.0862C67.318 44.1478 66.9171 44.1862 66.4468 44.1862C65.6528 44.1862 64.9666 44.0401 64.3884 43.74C63.8102 43.4476 63.3631 42.9629 63.0393 42.2935C62.7155 41.6242 62.5613 40.7547 62.5613 39.6699V24.8745L62.5536 24.8899Z" fill="white"/>
<path d="M4.77175 46.4558V66.9832H0.631836V46.4558H4.77175ZM12.0417 63.5748V66.9909H3.49971V63.5748H12.0494H12.0417Z" fill="white"/>
<path d="M20.229 67.2756C19.1805 67.2756 18.2554 67.114 17.4536 66.7986C16.6518 66.4754 15.9657 66.0138 15.4106 65.4137C14.8556 64.8059 14.4316 64.0749 14.1386 63.2055C13.8456 62.3438 13.6992 61.3513 13.6992 60.2434V58.9892C13.6992 57.7505 13.8379 56.658 14.1232 55.727C14.4084 54.7961 14.8093 54.0036 15.3258 53.365C15.8424 52.7264 16.4822 52.2494 17.2378 51.9339C17.9933 51.6185 18.8567 51.4646 19.8127 51.4646C20.7686 51.4646 21.6167 51.6262 22.3491 51.9339C23.0814 52.2494 23.6828 52.7187 24.1607 53.3419C24.6387 53.9651 25.0011 54.7422 25.2478 55.6578C25.4945 56.581 25.6178 57.6505 25.6178 58.8738V60.6819H15.3721V57.9044H21.7323V57.5505C21.7323 56.9273 21.6706 56.4118 21.5319 55.9886C21.4008 55.5731 21.1927 55.2577 20.9074 55.05C20.6222 54.8422 20.2444 54.7422 19.7741 54.7422C19.381 54.7422 19.0417 54.8191 18.7719 54.9807C18.5021 55.1423 18.2785 55.3885 18.1243 55.727C17.9624 56.0656 17.8468 56.5041 17.7697 57.0427C17.6926 57.5813 17.6541 58.2275 17.6541 58.9816V60.2357C17.6541 60.9435 17.7157 61.5282 17.8391 62.0053C17.9624 62.4823 18.1398 62.867 18.3864 63.1594C18.6332 63.4517 18.9184 63.6672 19.273 63.7903C19.6277 63.9134 20.0285 63.9826 20.4911 63.9826C21.1849 63.9826 21.8171 63.8595 22.3799 63.6056C22.9427 63.3594 23.4207 63.0132 23.8138 62.5823L25.3942 64.9828C25.1244 65.3367 24.7467 65.6984 24.261 66.0523C23.783 66.4062 23.2048 66.6986 22.5341 66.9294C21.8634 67.1602 21.0924 67.2679 20.2136 67.2679L20.229 67.2756Z" fill="white"/>
<path d="M31.793 54.9884V66.9909H27.8227V51.7339H31.5232L31.793 54.9884ZM31.1994 58.8431L30.1355 58.8738C30.1201 57.7274 30.228 56.6965 30.467 55.7886C30.706 54.8807 31.0529 54.0959 31.5 53.4573C31.9472 52.8187 32.4791 52.3186 33.1036 51.9801C33.728 51.6338 34.4296 51.4646 35.2082 51.4646C35.8019 51.4646 36.3492 51.5646 36.8426 51.7723C37.336 51.9801 37.76 52.3109 38.1224 52.7572C38.477 53.2111 38.7545 53.8035 38.955 54.5498C39.1554 55.2885 39.2479 56.2117 39.2479 57.2966V66.9986H35.2776V57.2658C35.2776 56.6041 35.2159 56.0963 35.0772 55.7347C34.9461 55.3731 34.7534 55.1192 34.4913 54.973C34.2291 54.8268 33.8976 54.7576 33.4968 54.7576C33.119 54.7576 32.7875 54.8576 32.4945 55.0653C32.2016 55.2731 31.9626 55.5578 31.7699 55.9348C31.5771 56.3041 31.4307 56.7426 31.3304 57.2427C31.2302 57.7428 31.184 58.2737 31.1994 58.8508V58.8431Z" fill="white"/>
<path d="M41.5145 58.8815C41.5145 57.6428 41.6224 56.558 41.8306 55.627C42.0387 54.696 42.3625 53.9189 42.7865 53.3034C43.2105 52.6879 43.7348 52.2186 44.3515 51.9108C44.9683 51.6031 45.6775 51.4492 46.4793 51.4492C47.204 51.4492 47.8438 51.6339 48.3912 51.9955C48.9386 52.3571 49.4088 52.8649 49.7943 53.5112C50.1798 54.1575 50.4881 54.9269 50.7271 55.8117C50.9584 56.6965 51.128 57.6659 51.2205 58.72V60.1895C51.1049 61.1897 50.9353 62.113 50.704 62.9824C50.4727 63.8441 50.1644 64.5981 49.7712 65.2367C49.378 65.8753 48.9077 66.3754 48.3681 66.737C47.8207 67.0986 47.1885 67.2833 46.4639 67.2833C45.6621 67.2833 44.9528 67.1217 44.3361 66.8063C43.7193 66.4831 43.2028 66.0138 42.7788 65.3906C42.3548 64.7674 42.0464 63.998 41.8306 63.0747C41.6147 62.1591 41.5145 61.1051 41.5145 59.9125V58.8815ZM45.4694 58.8815V59.8971C45.4694 60.6127 45.5079 61.2282 45.5773 61.736C45.6467 62.2438 45.7623 62.6669 45.9319 62.9901C46.0938 63.3132 46.3174 63.5517 46.5872 63.7133C46.857 63.8672 47.1963 63.9441 47.6049 63.9441C48.1291 63.9441 48.5608 63.8133 48.8923 63.5441C49.2238 63.2748 49.4705 62.9055 49.6324 62.4284C49.7943 61.9514 49.8868 61.4051 49.91 60.7819V58.1198C49.8945 57.6043 49.8329 57.135 49.7249 56.7272C49.6247 56.3118 49.4782 55.9578 49.2855 55.6732C49.1005 55.3808 48.8615 55.1577 48.5839 54.9961C48.3064 54.8345 47.9826 54.7576 47.6203 54.7576C47.2271 54.7576 46.8879 54.8345 46.6103 54.9961C46.3328 55.1577 46.117 55.4039 45.9551 55.7347C45.7932 56.0656 45.6775 56.4964 45.5927 57.0196C45.5156 57.5428 45.4694 58.166 45.4694 58.8892V58.8815ZM49.4397 63.621V45.3325H53.41V66.9909L49.8251 67.0063L49.4397 63.621Z" fill="white"/>
<path d="M56.1237 47.7715C56.1237 47.1637 56.3164 46.6559 56.7096 46.2635C57.1028 45.8711 57.627 45.6711 58.2977 45.6711C58.9684 45.6711 59.4772 45.8711 59.8627 46.2635C60.2482 46.6559 60.4409 47.1637 60.4409 47.7715C60.4409 48.3793 60.2482 48.8871 59.8627 49.2872C59.4772 49.6873 58.953 49.8873 58.2977 49.8873C57.6424 49.8873 57.1028 49.6873 56.7096 49.2872C56.3164 48.8871 56.1237 48.3793 56.1237 47.7715ZM60.2713 51.7339V66.9909H56.301V51.7339H60.2713Z" fill="white"/>
<path d="M67.1172 54.9884V66.9909H63.1469V51.7339H66.8474L67.1172 54.9884ZM66.5236 58.8431L65.4597 58.8738C65.4443 57.7274 65.5522 56.6965 65.7912 55.7886C66.0302 54.8807 66.3771 54.0959 66.8242 53.4573C67.2714 52.8187 67.8033 52.3186 68.4278 51.9801C69.0522 51.6338 69.7538 51.4646 70.5324 51.4646C71.1261 51.4646 71.6734 51.5646 72.1668 51.7723C72.6602 51.9801 73.0842 52.3109 73.4466 52.7572C73.8012 53.2111 74.0787 53.8035 74.2792 54.5498C74.4796 55.2885 74.5721 56.2117 74.5721 57.2966V66.9986H70.6018V57.2658C70.6018 56.6041 70.5401 56.0963 70.4014 55.7347C70.2703 55.3731 70.0776 55.1192 69.8155 54.973C69.5534 54.8268 69.2219 54.7576 68.821 54.7576C68.4432 54.7576 68.1117 54.8576 67.8187 55.0653C67.5258 55.2731 67.2868 55.5578 67.0941 55.9348C66.9013 56.3041 66.7549 56.7426 66.6546 57.2427C66.5544 57.7428 66.5082 58.2737 66.5236 58.8508V58.8431Z" fill="white"/>
<path d="M76.8541 59.8971V58.8815C76.8541 57.6428 76.9697 56.558 77.2087 55.627C77.4477 54.696 77.7869 53.9189 78.2264 53.3034C78.6658 52.6879 79.2132 52.2186 79.8607 51.9108C80.5083 51.6031 81.2253 51.4492 82.0271 51.4492C82.8288 51.4492 83.5689 51.6339 84.1317 51.9955C84.6945 52.3571 85.1571 52.8649 85.5117 53.5112C85.8663 54.1575 86.1361 54.9269 86.3289 55.8117C86.5216 56.6965 86.6681 57.6659 86.776 58.72V60.1895C86.6758 61.1897 86.5062 62.113 86.2749 62.9824C86.0436 63.8441 85.743 64.5981 85.3652 65.2367C84.9875 65.8753 84.5249 66.3754 83.9775 66.737C83.4302 67.0986 82.7749 67.2833 81.9962 67.2833C81.2176 67.2833 80.4929 67.1217 79.853 66.8063C79.2132 66.4908 78.6735 66.0138 78.2264 65.3906C77.7792 64.7674 77.44 63.998 77.201 63.0747C76.962 62.1515 76.8464 61.1051 76.8464 59.9125L76.8541 59.8971ZM85.3883 51.7339H88.9809V66.9909C88.9809 68.3835 88.7188 69.5222 88.1791 70.407C87.6395 71.2918 86.9071 71.9458 85.9588 72.369C85.0106 72.7845 83.9081 72.9999 82.6438 72.9999C82.1658 72.9999 81.6262 72.9306 81.0248 72.7999C80.4235 72.6691 79.853 72.469 79.2902 72.1997C78.7352 71.9304 78.2803 71.6073 77.918 71.238L79.2594 68.4989C79.6295 68.8683 80.1074 69.176 80.7011 69.4376C81.2947 69.6992 81.8806 69.8223 82.4511 69.8223C83.0216 69.8223 83.4687 69.7377 83.8388 69.5607C84.2088 69.3837 84.4941 69.0914 84.6868 68.6759C84.8795 68.2604 84.9797 67.7065 84.9797 67.014V55.2654L85.3729 51.7262L85.3883 51.7339ZM80.8244 58.8815V59.8971C80.8244 60.6127 80.8707 61.2282 80.9555 61.736C81.0403 62.2438 81.1868 62.6669 81.3718 62.9901C81.5645 63.3132 81.8035 63.5517 82.0965 63.7133C82.3894 63.8672 82.744 63.9441 83.1526 63.9441C83.7308 63.9441 84.1857 63.8133 84.5326 63.5441C84.8795 63.2748 85.1339 62.9055 85.2958 62.4284C85.4577 61.9514 85.5502 61.4051 85.5734 60.7819V58.1198C85.5657 57.6043 85.504 57.135 85.396 56.7272C85.2881 56.3118 85.1416 55.9578 84.9489 55.6732C84.7562 55.3808 84.5172 55.1577 84.2242 54.9961C83.9313 54.8345 83.5844 54.7576 83.1835 54.7576C82.7826 54.7576 82.4279 54.8345 82.135 54.9961C81.842 55.1577 81.6031 55.4039 81.4103 55.7347C81.2176 56.0656 81.0711 56.4964 80.9709 57.0196C80.8707 57.5428 80.8244 58.166 80.8244 58.8892V58.8815Z" fill="white"/>
<path d="M90.1065 49.4795C90.1065 49.1872 90.1604 48.9179 90.2606 48.6717C90.3609 48.4255 90.4996 48.2101 90.6769 48.0177C90.8543 47.8254 91.0624 47.6869 91.3014 47.5868C91.5404 47.4868 91.7871 47.433 92.0569 47.433C92.3268 47.433 92.5812 47.4868 92.8124 47.5868C93.0437 47.6869 93.2519 47.833 93.4292 48.0177C93.6065 48.2024 93.7453 48.4178 93.8455 48.6717C93.9457 48.9179 93.9997 49.1872 93.9997 49.4795C93.9997 49.7719 93.9457 50.0412 93.8455 50.2874C93.7453 50.5336 93.6065 50.7567 93.4292 50.9414C93.2519 51.126 93.0437 51.2722 92.8124 51.3799C92.5734 51.4877 92.3268 51.5338 92.0569 51.5338C91.7871 51.5338 91.5327 51.48 91.3014 51.3799C91.0701 51.2799 90.862 51.1337 90.6769 50.9414C90.4919 50.749 90.3609 50.5413 90.2606 50.2874C90.1604 50.0412 90.1065 49.7719 90.1065 49.4795ZM90.4457 49.4795C90.4457 49.7181 90.4842 49.9489 90.569 50.1566C90.6538 50.3644 90.7695 50.5413 90.9159 50.7029C91.0624 50.8568 91.232 50.9799 91.4325 51.0645C91.6252 51.1491 91.8334 51.1953 92.0569 51.1953C92.2805 51.1953 92.4886 51.1491 92.6814 51.0645C92.8741 50.9799 93.0437 50.8568 93.1979 50.7029C93.3444 50.549 93.46 50.3644 93.5448 50.1566C93.6296 49.9489 93.6682 49.7258 93.6682 49.4795C93.6682 49.2333 93.6296 49.0179 93.5448 48.8102C93.46 48.6024 93.3444 48.4255 93.1979 48.2639C93.0514 48.11 92.8818 47.9869 92.6814 47.9023C92.4886 47.8177 92.2805 47.7715 92.0569 47.7715C91.8334 47.7715 91.6252 47.8177 91.4325 47.9023C91.2397 47.9869 91.0624 48.11 90.9159 48.2639C90.7695 48.4178 90.6538 48.6024 90.569 48.8102C90.4842 49.0179 90.4457 49.241 90.4457 49.4795ZM92.1263 49.6873H91.5404V49.318H92.0415C92.1186 49.318 92.1957 49.3026 92.2728 49.2795C92.3422 49.2564 92.4038 49.218 92.4424 49.1718C92.4809 49.1256 92.5041 49.0641 92.5041 48.9948C92.5041 48.9025 92.4886 48.8333 92.4578 48.7871C92.427 48.7409 92.3807 48.7025 92.3036 48.6794C92.2342 48.6563 92.1417 48.6486 92.0184 48.6486H91.6637V50.6106H91.2474V48.2793H92.0184C92.1957 48.2793 92.3576 48.3101 92.4886 48.3639C92.6197 48.4178 92.7276 48.4947 92.797 48.6024C92.8664 48.7102 92.9049 48.841 92.9049 48.9948C92.9049 49.0949 92.8818 49.1795 92.8356 49.2564C92.7893 49.3334 92.7199 49.3949 92.6351 49.4565C92.5503 49.518 92.4347 49.5565 92.3036 49.5873C92.3036 49.5873 92.2959 49.5873 92.2882 49.6027C92.2882 49.618 92.2728 49.6257 92.2728 49.6257C92.2419 49.6411 92.2188 49.6565 92.2111 49.6642C92.2034 49.6719 92.1957 49.6796 92.188 49.6796C92.1803 49.6796 92.1571 49.6796 92.1186 49.6796L92.1263 49.6873ZM92.0955 49.6873L92.1494 49.3872C92.4347 49.3872 92.6351 49.4488 92.743 49.5796C92.851 49.7104 92.9049 49.8719 92.9049 50.0643V50.2182C92.9049 50.2874 92.905 50.349 92.9127 50.4105C92.9127 50.4721 92.9281 50.5259 92.9512 50.5644V50.6106H92.5272C92.5118 50.5644 92.4964 50.4951 92.4964 50.4105C92.4964 50.3259 92.4964 50.2566 92.4964 50.2182V50.072C92.4964 49.9412 92.4655 49.8489 92.4038 49.7873C92.3422 49.7258 92.2419 49.695 92.0955 49.695V49.6873Z" fill="white"/>
</svg>
