<svg width="24" height="24" viewBox="0 0 24 24" fill="none" xmlns="http://www.w3.org/2000/svg">
<path d="M5.71386 21.1495C5.30353 21.1495 4.91944 21.0141 4.56161 20.7435C4.20394 20.473 3.96694 20.1426 3.85061 19.7522C3.43394 18.3269 3.08969 17.0966 2.81786 16.0615C2.54586 15.0265 2.32911 14.1165 2.16761 13.3315C2.00611 12.5465 1.89194 11.8513 1.82511 11.246C1.75811 10.6405 1.72461 10.0585 1.72461 9.49998C1.72461 7.92598 2.27253 6.5899 3.36836 5.49173C4.46403 4.39356 5.79944 3.84448 7.37461 3.84448H12.5264C12.9864 3.24448 13.5689 2.76115 14.2741 2.39448C14.9793 2.02782 15.753 1.84448 16.5954 1.84448C17.0677 1.84448 17.4607 2.00432 17.7744 2.32398C18.0879 2.64348 18.2446 3.03148 18.2446 3.48798C18.2446 3.59432 18.2321 3.70057 18.2071 3.80673C18.1821 3.9129 18.1529 4.01032 18.1196 4.09898C18.0569 4.26632 17.9984 4.43615 17.9441 4.60848C17.8898 4.78098 17.8459 4.97057 17.8126 5.17723L19.9801 7.34448H21.4229C21.6634 7.34448 21.8654 7.42748 22.0291 7.59348C22.1928 7.75931 22.2746 7.96223 22.2746 8.20223V13.955C22.2746 14.1508 22.2218 14.324 22.1161 14.4745C22.0106 14.6251 21.8645 14.7275 21.6779 14.7815L19.3916 15.527L18.0756 19.931C17.9644 20.2973 17.7588 20.592 17.4586 20.815C17.1586 21.038 16.8152 21.1495 16.4284 21.1495H13.6551C13.2079 21.1495 12.8192 21.0036 12.4889 20.7117C12.1587 20.4201 11.9777 20.066 11.9459 19.6495V19.1495H10.0176V19.6495C9.98561 20.066 9.80511 20.4201 9.47611 20.7117C9.14711 21.0036 8.75986 21.1495 8.31436 21.1495H5.71386ZM5.54086 19.4462H8.34411V17.4462H13.6191V19.4462H16.4224L17.9951 14.203L20.5654 13.3392V9.05373H19.2654L16.0654 5.85373C16.082 5.5784 16.1279 5.23657 16.2029 4.82823C16.2779 4.4199 16.382 3.96373 16.5154 3.45973C15.8107 3.64707 15.1854 3.92606 14.6394 4.29673C14.0934 4.6674 13.6943 5.0864 13.4421 5.55373H7.37411C6.28411 5.55373 5.35394 5.93907 4.58361 6.70973C3.81311 7.48023 3.42786 8.41048 3.42786 9.50048C3.42786 10.2 3.61019 11.4166 3.97486 13.1505C4.33953 14.8841 4.86153 16.9827 5.54086 19.4462ZM15.9936 11.1675C16.3026 11.1675 16.5634 11.0616 16.7761 10.85C16.9889 10.6383 17.0954 10.3769 17.0954 10.0657C17.0954 9.75457 16.9888 9.49315 16.7756 9.28148C16.5624 9.06998 16.301 8.96423 15.9914 8.96423C15.6817 8.96423 15.42 9.06998 15.2064 9.28148C14.9929 9.49315 14.8861 9.75457 14.8861 10.0657C14.8861 10.3769 14.993 10.6383 15.2069 10.85C15.4207 11.0616 15.6829 11.1675 15.9936 11.1675ZM12.1691 8.72123C12.4049 8.72123 12.6013 8.64198 12.7581 8.48348C12.9151 8.32482 12.9936 8.12906 12.9936 7.89623C12.9936 7.66323 12.9151 7.46856 12.7581 7.31223C12.6013 7.1559 12.4049 7.07773 12.1691 7.07773H8.62086C8.38503 7.07773 8.18969 7.15698 8.03486 7.31548C7.87986 7.47415 7.80236 7.67065 7.80236 7.90498C7.80236 8.13782 7.88119 8.33207 8.03886 8.48773C8.19653 8.6434 8.39253 8.72123 8.62686 8.72123H12.1691Z" fill="white"/>
</svg>
