<svg width="112" height="33" viewBox="0 0 112 33" fill="none" xmlns="http://www.w3.org/2000/svg">
<path d="M4.9344 1.33981V25.8237H0V1.33981H4.9344ZM13.5994 21.7583V25.8329H3.40905V21.7583H13.5994Z" fill="#4683B3"/>
<path d="M23.358 26.1724C22.1083 26.1724 21.0056 25.9797 20.05 25.6034C19.0943 25.218 18.2765 24.6674 17.615 23.9516C16.9534 23.2266 16.448 22.3548 16.0988 21.3178C15.7496 20.29 15.575 19.1062 15.575 17.7847V16.2889C15.575 14.8115 15.7404 13.5083 16.0804 12.3979C16.4204 11.2875 16.8982 10.3423 17.5139 9.58062C18.1295 8.81894 18.8922 8.24999 19.7927 7.87374C20.6932 7.49749 21.7223 7.31396 22.8617 7.31396C24.0012 7.31396 25.0119 7.50666 25.8849 7.87374C26.7578 8.24999 27.4745 8.80977 28.0442 9.55309C28.6139 10.2964 29.0458 11.2233 29.3399 12.3153C29.6339 13.4166 29.7809 14.6921 29.7809 16.1513V18.3078H17.569V14.995H25.1498V14.5728C25.1498 13.8295 25.0762 13.2147 24.9109 12.7099C24.7546 12.2144 24.5065 11.8381 24.1666 11.5904C23.8266 11.3426 23.3763 11.2233 22.8158 11.2233C22.3472 11.2233 21.9429 11.3151 21.6213 11.5078C21.2996 11.7005 21.0332 11.9941 20.8494 12.3979C20.6564 12.8017 20.5186 13.3248 20.4267 13.9672C20.3348 14.6096 20.2889 15.3804 20.2889 16.2798V17.7756C20.2889 18.6199 20.3624 19.3173 20.5094 19.8863C20.6564 20.4552 20.8678 20.9141 21.1618 21.2628C21.4559 21.6115 21.7959 21.8685 22.2185 22.0153C22.6412 22.1621 23.119 22.2447 23.6704 22.2447C24.4974 22.2447 25.2508 22.0979 25.9216 21.7951C26.5924 21.5014 27.1621 21.0884 27.6307 20.5745L29.5145 23.4377C29.1928 23.8598 28.7426 24.2912 28.1637 24.7133C27.594 25.1354 26.9048 25.4841 26.1054 25.7594C25.306 26.0347 24.3871 26.1632 23.3396 26.1632L23.358 26.1724Z" fill="#4683B3"/>
<path d="M37.1412 11.517V25.8329H32.4089V7.63513H36.8195L37.1412 11.517ZM36.4336 16.1146L35.1656 16.1513C35.1472 14.7839 35.2758 13.5542 35.5607 12.4714C35.8455 11.3885 36.259 10.4524 36.792 9.69077C37.3249 8.92909 37.959 8.33258 38.7033 7.9288C39.4475 7.51584 40.2837 7.31396 41.2118 7.31396C41.9193 7.31396 42.5717 7.43326 43.1598 7.68103C43.7479 7.92881 44.2533 8.32341 44.6852 8.85567C45.1078 9.3971 45.4386 10.1037 45.6776 10.9939C45.9165 11.8748 46.0267 12.9761 46.0267 14.27V25.842H41.2945V14.2333C41.2945 13.4441 41.221 12.8384 41.0556 12.4071C40.8994 11.9758 40.6697 11.673 40.3572 11.4986C40.0448 11.3243 39.6497 11.2417 39.1719 11.2417C38.7216 11.2417 38.3265 11.361 37.9773 11.6087C37.6282 11.8565 37.3433 12.1961 37.1136 12.6457C36.8839 13.0862 36.7093 13.6093 36.5898 14.2058C36.4704 14.8023 36.4152 15.4355 36.4336 16.1237V16.1146Z" fill="#4683B3"/>
<path d="M48.7282 16.1604C48.7282 14.683 48.8569 13.389 49.105 12.2786C49.3531 11.1682 49.739 10.2414 50.2444 9.50722C50.7498 8.77307 51.3746 8.21328 52.1097 7.84621C52.8448 7.47913 53.6902 7.29559 54.6458 7.29559C55.5096 7.29559 56.2723 7.51583 56.9247 7.94714C57.5771 8.37845 58.1376 8.98413 58.597 9.75498C59.0565 10.5258 59.424 11.4435 59.7089 12.4989C59.9845 13.5542 60.1867 14.7105 60.2969 15.9677V17.7205C60.1591 18.9135 59.957 20.0147 59.6813 21.0517C59.4056 22.0795 59.0381 22.9789 58.5695 23.7405C58.1008 24.5022 57.5403 25.0987 56.8971 25.53C56.2447 25.9613 55.4912 26.1816 54.6275 26.1816C53.6718 26.1816 52.8264 25.9889 52.0913 25.6126C51.3562 25.2272 50.7406 24.6674 50.2352 23.9241C49.7298 23.1807 49.3623 22.2631 49.105 21.1618C48.8477 20.0698 48.7282 18.8126 48.7282 17.3901V16.1604ZM53.4421 16.1604V17.3718C53.4421 18.2252 53.488 18.9594 53.5707 19.5651C53.6534 20.1707 53.7913 20.6755 53.9934 21.0609C54.1864 21.4463 54.4529 21.7308 54.7745 21.9235C55.0961 22.1071 55.5004 22.1988 55.9874 22.1988C56.6122 22.1988 57.1268 22.0428 57.5219 21.7216C57.917 21.4004 58.2111 20.96 58.404 20.391C58.597 19.822 58.7073 19.1705 58.7349 18.4271V15.2519C58.7165 14.6371 58.6429 14.0773 58.5143 13.5909C58.3948 13.0954 58.2203 12.6732 57.9906 12.3337C57.77 11.985 57.4852 11.7189 57.1544 11.5261C56.8236 11.3334 56.4376 11.2417 56.0058 11.2417C55.5371 11.2417 55.1328 11.3334 54.802 11.5261C54.4712 11.7189 54.214 12.0125 54.021 12.4071C53.828 12.8017 53.6902 13.3156 53.5891 13.9396C53.4972 14.5637 53.4421 15.307 53.4421 16.1696V16.1604ZM58.1743 21.8134V0H62.9065V25.8329L58.6338 25.8512L58.1743 21.8134Z" fill="#4683B3"/>
<path d="M66.141 2.90905C66.141 2.18408 66.3708 1.57841 66.8394 1.11039C67.308 0.642373 67.9328 0.403756 68.7323 0.403756C69.5317 0.403756 70.1382 0.642373 70.5976 1.11039C71.057 1.57841 71.2868 2.18408 71.2868 2.90905C71.2868 3.63402 71.057 4.2397 70.5976 4.71689C70.1382 5.19409 69.5133 5.43269 68.7323 5.43269C67.9512 5.43269 67.308 5.19409 66.8394 4.71689C66.3708 4.2397 66.141 3.63402 66.141 2.90905ZM71.0846 7.63513V25.8329H66.3523V7.63513H71.0846Z" fill="#4683B3"/>
<path d="M79.2443 11.517V25.8329H74.512V7.63513H78.9227L79.2443 11.517ZM78.5367 16.1146L77.2687 16.1513C77.2503 14.7839 77.3789 13.5542 77.6638 12.4714C77.9486 11.3885 78.3621 10.4524 78.8951 9.69077C79.428 8.92909 80.0621 8.33258 80.8064 7.9288C81.5506 7.51584 82.3868 7.31396 83.3149 7.31396C84.0224 7.31396 84.6748 7.43326 85.2629 7.68103C85.851 7.92881 86.3564 8.32341 86.7883 8.85567C87.211 9.3971 87.5417 10.1037 87.7806 10.9939C88.0196 11.8748 88.1298 12.9761 88.1298 14.27V25.842H83.3976V14.2333C83.3976 13.4441 83.3241 12.8384 83.1587 12.4071C83.0025 11.9758 82.7728 11.673 82.4604 11.4986C82.1479 11.3243 81.7528 11.2417 81.275 11.2417C80.8247 11.2417 80.4296 11.361 80.0804 11.6087C79.7313 11.8565 79.4464 12.1961 79.2167 12.6457C78.987 13.0862 78.8124 13.6093 78.6929 14.2058C78.5735 14.8023 78.5183 15.4355 78.5367 16.1237V16.1146Z" fill="#4683B3"/>
<path d="M90.8497 17.3718V16.1604C90.8497 14.683 90.9876 13.389 91.2724 12.2786C91.5573 11.1682 91.9615 10.2414 92.4853 9.50722C93.0091 8.77307 93.6615 8.21328 94.4334 7.84621C95.2052 7.47913 96.0598 7.29559 97.0154 7.29559C97.9711 7.29559 98.8532 7.51583 99.5239 7.94714C100.195 8.37845 100.746 8.98413 101.169 9.75498C101.591 10.5258 101.913 11.4435 102.143 12.4989C102.372 13.5542 102.547 14.7105 102.676 15.9677V17.7205C102.556 18.9135 102.354 20.0147 102.078 21.0517C101.803 22.0795 101.444 22.9789 100.994 23.7405C100.544 24.5022 99.9926 25.0987 99.3402 25.53C98.6878 25.9613 97.9067 26.1816 96.9787 26.1816C96.0506 26.1816 95.1868 25.9889 94.4242 25.6126C93.6615 25.2364 93.0183 24.6674 92.4853 23.9241C91.9524 23.1807 91.5481 22.2631 91.2632 21.1618C90.9784 20.0606 90.8405 18.8126 90.8405 17.3901L90.8497 17.3718ZM101.022 7.63513H105.304V25.8329C105.304 27.4939 104.991 28.8521 104.348 29.9074C103.705 30.9627 102.832 31.7428 101.702 32.2475C100.571 32.743 99.2575 33 97.7505 33C97.1808 33 96.5376 32.9174 95.8209 32.7614C95.1041 32.6054 94.4242 32.3668 93.7534 32.0456C93.0918 31.7244 92.5496 31.339 92.1178 30.8985L93.7166 27.6315C94.1577 28.072 94.7274 28.4391 95.4349 28.7511C96.1425 29.0631 96.8408 29.2099 97.5208 29.2099C98.2008 29.2099 98.7337 29.109 99.1748 28.8979C99.6158 28.6869 99.9558 28.3382 100.186 27.8426C100.415 27.3471 100.535 26.6863 100.535 25.8604V11.8473L101.003 7.62597L101.022 7.63513ZM95.582 16.1604V17.3718C95.582 18.2252 95.6371 18.9594 95.7382 19.5651C95.8392 20.1707 96.0138 20.6755 96.2344 21.0609C96.4641 21.4463 96.7489 21.7308 97.0981 21.9235C97.4473 22.1071 97.87 22.1988 98.357 22.1988C99.0461 22.1988 99.5883 22.0428 100.002 21.7216C100.415 21.4004 100.718 20.96 100.911 20.391C101.104 19.822 101.215 19.1705 101.242 18.4271V15.2519C101.233 14.6371 101.16 14.0773 101.031 13.5909C100.902 13.0954 100.728 12.6732 100.498 12.3337C100.268 11.985 99.9834 11.7189 99.6342 11.5261C99.285 11.3334 98.8716 11.2417 98.3937 11.2417C97.9159 11.2417 97.4932 11.3334 97.144 11.5261C96.7949 11.7189 96.51 12.0125 96.2803 12.4071C96.0506 12.8017 95.876 13.3156 95.7565 13.9396C95.6371 14.5637 95.582 15.307 95.582 16.1696V16.1604Z" fill="#4683B3"/>
<path d="M106.645 4.94632C106.645 4.59759 106.71 4.27642 106.829 3.98276C106.949 3.6891 107.114 3.43214 107.325 3.20272C107.537 2.9733 107.785 2.80811 108.07 2.68881C108.354 2.56952 108.648 2.50527 108.97 2.50527C109.292 2.50527 109.595 2.56952 109.871 2.68881C110.146 2.80811 110.394 2.98247 110.606 3.20272C110.817 3.42296 110.982 3.67992 111.102 3.98276C111.221 4.27642 111.286 4.59759 111.286 4.94632C111.286 5.29504 111.221 5.61622 111.102 5.90988C110.982 6.20354 110.817 6.46967 110.606 6.68991C110.394 6.91016 110.146 7.08453 109.871 7.213C109.586 7.34148 109.292 7.39655 108.97 7.39655C108.648 7.39655 108.345 7.3323 108.07 7.213C107.794 7.0937 107.546 6.91934 107.325 6.68991C107.105 6.46049 106.949 6.21271 106.829 5.90988C106.71 5.61622 106.645 5.29504 106.645 4.94632ZM107.05 4.94632C107.05 5.2308 107.096 5.50611 107.197 5.75388C107.298 6.00166 107.436 6.21272 107.61 6.40543C107.785 6.58897 107.987 6.7358 108.226 6.83675C108.455 6.93769 108.704 6.99277 108.97 6.99277C109.237 6.99277 109.485 6.93769 109.714 6.83675C109.944 6.7358 110.146 6.58897 110.33 6.40543C110.505 6.2219 110.642 6.00166 110.743 5.75388C110.845 5.50611 110.89 5.23998 110.89 4.94632C110.89 4.65266 110.845 4.39571 110.743 4.14793C110.642 3.90016 110.505 3.6891 110.33 3.49638C110.155 3.31285 109.953 3.16602 109.714 3.06507C109.485 2.96412 109.237 2.90905 108.97 2.90905C108.704 2.90905 108.455 2.96412 108.226 3.06507C107.996 3.16602 107.785 3.31285 107.61 3.49638C107.436 3.67992 107.298 3.90016 107.197 4.14793C107.096 4.39571 107.05 4.66183 107.05 4.94632ZM109.053 5.19408H108.354V4.75361H108.952C109.044 4.75361 109.135 4.73524 109.227 4.70771C109.31 4.68018 109.384 4.63431 109.429 4.57925C109.475 4.52419 109.503 4.45076 109.503 4.36817C109.503 4.25805 109.485 4.17546 109.448 4.1204C109.411 4.06534 109.356 4.01944 109.264 3.99191C109.181 3.96438 109.071 3.95523 108.924 3.95523H108.501V6.29532H108.005V3.51473H108.924C109.135 3.51473 109.328 3.55142 109.485 3.61566C109.641 3.6799 109.769 3.77169 109.852 3.90017C109.935 4.02864 109.981 4.18463 109.981 4.36817C109.981 4.48747 109.953 4.58841 109.898 4.68018C109.843 4.77195 109.76 4.84537 109.659 4.91879C109.558 4.9922 109.42 5.0381 109.264 5.07481C109.264 5.07481 109.255 5.0748 109.246 5.09315C109.246 5.1115 109.227 5.12068 109.227 5.12068C109.191 5.13903 109.163 5.15737 109.154 5.16655C109.145 5.17573 109.135 5.18492 109.126 5.18492C109.117 5.18492 109.09 5.18492 109.044 5.18492L109.053 5.19408ZM109.016 5.19408L109.08 4.8362C109.42 4.8362 109.659 4.90961 109.788 5.06562C109.916 5.22163 109.981 5.41434 109.981 5.64377V5.82729C109.981 5.90988 109.981 5.98329 109.99 6.05671C109.99 6.13012 110.008 6.19437 110.036 6.24026V6.29532H109.531C109.512 6.24025 109.494 6.15765 109.494 6.05671C109.494 5.95576 109.494 5.87317 109.494 5.82729V5.65292C109.494 5.49692 109.457 5.3868 109.384 5.31339C109.31 5.23997 109.191 5.20327 109.016 5.20327V5.19408Z" fill="#4683B3"/>
</svg>
