<svg width="177" height="26" viewBox="0 0 177 26" fill="none" xmlns="http://www.w3.org/2000/svg">
<path d="M12.1108 16.6835H17.0085C16.9442 18.5189 16.5674 20.0698 15.8966 21.3362C15.2258 22.6026 14.261 23.557 13.0297 24.1994C11.7892 24.8509 10.2915 25.1721 8.54559 25.1721C7.18564 25.1721 5.98191 24.9427 4.9252 24.4931C3.86849 24.0434 2.96798 23.3735 2.23288 22.4833C1.48859 21.5932 0.928069 20.5011 0.560517 19.198C0.183776 17.8949 0 16.3899 0 14.683V10.5259C0 8.81897 0.202154 7.31397 0.597272 6.00168C0.992391 4.68939 1.57129 3.58816 2.31558 2.698C3.05987 1.80784 3.96956 1.13792 5.02628 0.679079C6.08299 0.220236 7.28672 0 8.6191 0C10.4017 0 11.8995 0.330364 13.1032 1.00027C14.307 1.67019 15.235 2.64295 15.8874 3.93688C16.5398 5.23082 16.9442 6.80007 17.0728 8.64462H12.1568C12.12 7.47916 11.9914 6.56147 11.7617 5.89156C11.5319 5.22165 11.1644 4.75362 10.6774 4.47831C10.1812 4.20301 9.50122 4.06534 8.6191 4.06534C7.96669 4.06534 7.40618 4.18465 6.93755 4.41407C6.46892 4.64349 6.08299 5.01058 5.77976 5.51531C5.47653 6.02003 5.256 6.68077 5.11816 7.49751C4.98033 8.31425 4.90682 9.31451 4.90682 10.4892V14.6738C4.90682 15.8301 4.97114 16.812 5.0906 17.6287C5.21005 18.4455 5.41221 19.1062 5.67868 19.6201C5.94516 20.134 6.31271 20.5103 6.78134 20.7489C7.24997 20.9875 7.83805 21.0976 8.55478 21.0976C9.38177 21.0976 10.0526 20.9783 10.5671 20.7305C11.0817 20.4828 11.4584 20.0423 11.7065 19.3999C11.9546 18.7575 12.0925 17.849 12.1292 16.6744L12.1108 16.6835Z" fill="#2C3842"/>
<path d="M27.107 25.1813C25.8573 25.1813 24.7546 24.9886 23.799 24.6124C22.8434 24.2269 22.0256 23.6763 21.364 22.9605C20.7024 22.2355 20.197 21.3637 19.8478 20.3268C19.4986 19.2989 19.3241 18.1151 19.3241 16.7937V15.2978C19.3241 13.8204 19.4895 12.5172 19.8294 11.4068C20.1694 10.2964 20.6472 9.35121 21.2629 8.58953C21.8785 7.82785 22.6412 7.2589 23.5417 6.88265C24.4422 6.5064 25.4714 6.32287 26.6108 6.32287C27.7502 6.32287 28.761 6.51557 29.6339 6.88265C30.5068 7.2589 31.2236 7.81868 31.7933 8.562C32.363 9.30533 32.7948 10.2322 33.0889 11.3242C33.3829 12.4255 33.5299 13.701 33.5299 15.1602V17.3167H21.318V14.0039H28.8988V13.5817C28.8988 12.8384 28.8253 12.2236 28.6599 11.7188C28.5037 11.2233 28.2556 10.847 27.9156 10.5993C27.5756 10.3515 27.1253 10.2322 26.5648 10.2322C26.0962 10.2322 25.6919 10.324 25.3703 10.5167C25.0487 10.7094 24.7822 11.0031 24.5984 11.4068C24.4055 11.8106 24.2676 12.3337 24.1757 12.9761C24.0839 13.6185 24.0379 14.3893 24.0379 15.2887V16.7845C24.0379 17.6288 24.1114 18.3262 24.2584 18.8952C24.4055 19.4641 24.6168 19.923 24.9108 20.2717C25.2049 20.6204 25.5449 20.8774 25.9676 21.0242C26.3902 21.171 26.8681 21.2536 27.4194 21.2536C28.2464 21.2536 28.9999 21.1068 29.6706 20.804C30.3414 20.5103 30.9111 20.0973 31.3798 19.5834L33.2635 22.4466C32.9419 22.8687 32.4916 23.3001 31.9127 23.7222C31.343 24.1443 30.6538 24.493 29.8544 24.7684C29.055 25.0437 28.1361 25.1721 27.0886 25.1721L27.107 25.1813Z" fill="#2C3842"/>
<path d="M40.881 10.5259V24.8418H36.1488V6.64404H40.5594L40.881 10.5259ZM40.1826 15.1235L38.9146 15.1602C38.8962 13.7928 39.0249 12.5631 39.3097 11.4803C39.5946 10.3974 40.0081 9.46136 40.541 8.69968C41.074 7.938 41.708 7.34149 42.4523 6.93771C43.1966 6.52475 44.0327 6.32287 44.9608 6.32287C45.6684 6.32287 46.3208 6.44217 46.9088 6.68994C47.4969 6.93772 48.0023 7.33232 48.4342 7.86458C48.8569 8.40602 49.1877 9.11262 49.4266 10.0028C49.6655 10.8838 49.7758 11.985 49.7758 13.2789V24.8509H45.0435V13.2422C45.0435 12.453 44.97 11.8473 44.8046 11.416C44.6484 10.9847 44.4187 10.6819 44.1063 10.5075C43.7938 10.3332 43.3987 10.2506 42.9209 10.2506C42.4707 10.2506 42.0755 10.3699 41.7264 10.6176C41.3772 10.8654 41.0923 11.205 40.8626 11.6546C40.6329 12.0951 40.4583 12.6182 40.3389 13.2147C40.2194 13.8112 40.1643 14.4444 40.1826 15.1326V15.1235Z" fill="#2C3842"/>
<path d="M60.9953 6.64404V10.1955H51.6962V6.64404H60.9953ZM53.8372 2.15657H58.5327V19.2989C58.5327 19.7945 58.5786 20.1799 58.6889 20.4461C58.79 20.7214 58.9462 20.9141 59.1483 21.015C59.3597 21.1251 59.6262 21.171 59.9661 21.171C60.2142 21.171 60.4348 21.1527 60.6369 21.1251C60.8391 21.0976 60.9861 21.0701 61.0964 21.0334V24.7133C60.7288 24.8601 60.3337 24.9702 59.9294 25.0528C59.5159 25.1262 59.0381 25.1721 58.4776 25.1721C57.5311 25.1721 56.7133 24.9978 56.0241 24.6399C55.335 24.2912 54.802 23.713 54.4161 22.9146C54.0302 22.1162 53.8464 21.0793 53.8464 19.7853V2.1382L53.8372 2.15657Z" fill="#2C3842"/>
<path d="M70.6068 25.1813C69.3571 25.1813 68.2544 24.9886 67.2988 24.6124C66.3432 24.2269 65.5254 23.6763 64.8638 22.9605C64.2022 22.2355 63.6968 21.3637 63.3476 20.3268C62.9984 19.2989 62.8239 18.1151 62.8239 16.7937V15.2978C62.8239 13.8204 62.9893 12.5172 63.3292 11.4068C63.6692 10.2964 64.147 9.35121 64.7627 8.58953C65.3783 7.82785 66.141 7.2589 67.0415 6.88265C67.942 6.5064 68.9712 6.32287 70.1106 6.32287C71.25 6.32287 72.2608 6.51557 73.1337 6.88265C74.0066 7.2589 74.7234 7.81868 75.2931 8.562C75.8628 9.30533 76.2946 10.2322 76.5887 11.3242C76.8827 12.4255 77.0297 13.701 77.0297 15.1602V17.3167H64.8178V14.0039H72.3986V13.5817C72.3986 12.8384 72.3251 12.2236 72.1597 11.7188C72.0035 11.2233 71.7554 10.847 71.4154 10.5993C71.0754 10.3515 70.6251 10.2322 70.0646 10.2322C69.596 10.2322 69.1917 10.324 68.8701 10.5167C68.5485 10.7094 68.282 11.0031 68.0982 11.4068C67.9053 11.8106 67.7674 12.3337 67.6755 12.9761C67.5837 13.6185 67.5377 14.3893 67.5377 15.2887V16.7845C67.5377 17.6288 67.6112 18.3262 67.7582 18.8952C67.9053 19.4641 68.1166 19.923 68.4107 20.2717C68.7047 20.6204 69.0447 20.8774 69.4674 21.0242C69.89 21.171 70.3679 21.2536 70.9192 21.2536C71.7462 21.2536 72.4997 21.1068 73.1704 20.804C73.8412 20.5103 74.4109 20.0973 74.8796 19.5834L76.7633 22.4466C76.4417 22.8687 75.9914 23.3001 75.4125 23.7222C74.8428 24.1443 74.1536 24.493 73.3542 24.7684C72.5548 25.0437 71.6359 25.1721 70.5884 25.1721L70.6068 25.1813Z" fill="#2C3842"/>
<path d="M84.4175 10.7002V24.8418H79.7037V6.64404H84.1511L84.4175 10.7002ZM88.7087 6.50639L88.6444 11.1958C88.4331 11.1499 88.1758 11.1132 87.8817 11.0948C87.5877 11.0765 87.3212 11.0581 87.1007 11.0581C86.5677 11.0581 86.1267 11.1407 85.7499 11.3059C85.3732 11.4711 85.0699 11.7097 84.831 12.0309C84.5921 12.352 84.4084 12.7467 84.2797 13.2147C84.1603 13.6827 84.0867 14.215 84.0592 14.8115L83.1679 14.4719C83.1679 13.2881 83.2598 12.196 83.4435 11.2049C83.6273 10.2138 83.903 9.35124 84.2797 8.61709C84.6473 7.88294 85.0975 7.31396 85.6213 6.91018C86.145 6.5064 86.7331 6.3045 87.3947 6.3045C87.6244 6.3045 87.8542 6.32285 88.1114 6.35956C88.3687 6.39627 88.5617 6.44216 88.7087 6.50639Z" fill="#2C3842"/>
<path d="M105.543 18.3996C105.543 17.9591 105.506 17.5645 105.423 17.2066C105.34 16.8487 105.175 16.5184 104.927 16.2155C104.679 15.9127 104.311 15.6098 103.833 15.307C103.356 15.0042 102.74 14.6922 101.977 14.3618C101.068 13.9764 100.186 13.5726 99.331 13.1413C98.4764 12.71 97.7046 12.2052 97.0246 11.6363C96.3446 11.0673 95.8025 10.3882 95.3982 9.60818C95.003 8.82815 94.8009 7.91046 94.8009 6.85512C94.8009 5.79978 94.9847 4.89127 95.3614 4.047C95.7382 3.20273 96.2711 2.48692 96.9694 1.88125C97.6678 1.28475 98.4856 0.816749 99.4229 0.495559C100.36 0.174368 101.408 0.00918583 102.565 0.00918583C104.137 0.00918583 105.497 0.330374 106.645 0.981931C107.794 1.63349 108.685 2.52365 109.319 3.6524C109.953 4.78116 110.275 6.08427 110.275 7.55257H105.359C105.359 6.85513 105.258 6.24027 105.065 5.70801C104.872 5.17575 104.559 4.75362 104.128 4.45079C103.705 4.14795 103.154 3.99194 102.474 3.99194C101.849 3.99194 101.325 4.12042 100.911 4.3682C100.498 4.62515 100.195 4.96469 100.002 5.396C99.8088 5.82731 99.7077 6.31368 99.7077 6.85512C99.7077 7.2589 99.8088 7.61679 100.002 7.93798C100.195 8.25917 100.47 8.54365 100.82 8.79142C101.169 9.04838 101.582 9.28699 102.06 9.52559C102.538 9.76419 103.062 9.99361 103.631 10.2139C104.743 10.6543 105.726 11.1315 106.581 11.6546C107.435 12.1777 108.143 12.7558 108.722 13.4074C109.292 14.0498 109.724 14.7748 110.018 15.5823C110.312 16.3899 110.459 17.3076 110.459 18.3445C110.459 19.3815 110.284 20.29 109.926 21.1251C109.567 21.9602 109.062 22.676 108.382 23.2817C107.702 23.8874 106.893 24.3462 105.947 24.6674C105 24.9886 103.944 25.1538 102.768 25.1538C101.591 25.1538 100.562 24.9978 99.5515 24.6766C98.5407 24.3554 97.6494 23.869 96.8776 23.2175C96.1057 22.5659 95.5084 21.7308 95.0674 20.7122C94.6263 19.6936 94.415 18.4914 94.415 17.1057H99.3493C99.3493 17.849 99.4229 18.473 99.5699 18.9961C99.7169 19.5192 99.9374 19.9321 100.241 20.2442C100.544 20.5562 100.921 20.7856 101.362 20.9324C101.803 21.0793 102.317 21.1618 102.887 21.1618C103.539 21.1618 104.054 21.0426 104.449 20.7948C104.835 20.547 105.111 20.2166 105.285 19.8037C105.451 19.3907 105.533 18.9135 105.533 18.3904L105.543 18.3996Z" fill="#2C3842"/>
<path d="M121.669 6.64404V10.1955H112.37V6.64404H121.669ZM114.511 2.15657H119.206V19.2989C119.206 19.7945 119.252 20.1799 119.363 20.4461C119.464 20.7214 119.62 20.9141 119.822 21.015C120.033 21.1251 120.3 21.171 120.64 21.171C120.888 21.171 121.108 21.1527 121.311 21.1251C121.513 21.0976 121.66 21.0701 121.77 21.0334V24.7133C121.402 24.8601 121.007 24.9702 120.603 25.0528C120.19 25.1262 119.712 25.1721 119.151 25.1721C118.205 25.1721 117.387 24.9978 116.698 24.6399C116.009 24.2912 115.476 23.713 115.09 22.9146C114.704 22.1162 114.52 21.0793 114.52 19.7853V2.1382L114.511 2.15657Z" fill="#2C3842"/>
<path d="M128.956 10.7002V24.8418H124.242V6.64404H128.689L128.956 10.7002ZM133.247 6.50639L133.183 11.1958C132.971 11.1499 132.714 11.1132 132.42 11.0948C132.126 11.0765 131.859 11.0581 131.639 11.0581C131.106 11.0581 130.665 11.1407 130.288 11.3059C129.911 11.4711 129.608 11.7097 129.369 12.0309C129.13 12.352 128.946 12.7467 128.818 13.2147C128.698 13.6827 128.625 14.215 128.597 14.8115L127.706 14.4719C127.706 13.2881 127.798 12.196 127.982 11.2049C128.165 10.2138 128.441 9.35124 128.818 8.61709C129.185 7.88294 129.636 7.31396 130.159 6.91018C130.683 6.5064 131.271 6.3045 131.933 6.3045C132.163 6.3045 132.392 6.32285 132.65 6.35956C132.907 6.39627 133.1 6.44216 133.247 6.50639Z" fill="#2C3842"/>
<path d="M142.739 25.1813C141.489 25.1813 140.387 24.9886 139.431 24.6124C138.475 24.2269 137.657 23.6763 136.996 22.9605C136.334 22.2355 135.829 21.3637 135.48 20.3268C135.131 19.2989 134.956 18.1151 134.956 16.7937V15.2978C134.956 13.8204 135.121 12.5172 135.461 11.4068C135.801 10.2964 136.279 9.35121 136.895 8.58953C137.51 7.82785 138.273 7.2589 139.174 6.88265C140.074 6.5064 141.103 6.32287 142.243 6.32287C143.382 6.32287 144.393 6.51557 145.266 6.88265C146.139 7.2589 146.855 7.81868 147.425 8.562C147.995 9.30533 148.427 10.2322 148.721 11.3242C149.015 12.4255 149.162 13.701 149.162 15.1602V17.3167H136.95V14.0039H144.531V13.5817C144.531 12.8384 144.457 12.2236 144.292 11.7188C144.136 11.2233 143.887 10.847 143.548 10.5993C143.208 10.3515 142.757 10.2322 142.197 10.2322C141.728 10.2322 141.324 10.324 141.002 10.5167C140.681 10.7094 140.414 11.0031 140.23 11.4068C140.037 11.8106 139.9 12.3337 139.808 12.9761C139.716 13.6185 139.67 14.3893 139.67 15.2887V16.7845C139.67 17.6288 139.743 18.3262 139.89 18.8952C140.037 19.4641 140.249 19.923 140.543 20.2717C140.837 20.6204 141.177 20.8774 141.599 21.0242C142.022 21.171 142.5 21.2536 143.051 21.2536C143.878 21.2536 144.632 21.1068 145.303 20.804C145.973 20.5103 146.543 20.0973 147.012 19.5834L148.895 22.4466C148.574 22.8687 148.124 23.3001 147.545 23.7222C146.975 24.1443 146.286 24.493 145.486 24.7684C144.687 25.0437 143.768 25.1721 142.72 25.1721L142.739 25.1813Z" fill="#2C3842"/>
<path d="M159.049 25.1813C157.799 25.1813 156.697 24.9886 155.741 24.6124C154.785 24.2269 153.968 23.6763 153.306 22.9605C152.644 22.2355 152.139 21.3637 151.79 20.3268C151.441 19.2989 151.266 18.1151 151.266 16.7937V15.2978C151.266 13.8204 151.431 12.5172 151.771 11.4068C152.111 10.2964 152.589 9.35121 153.205 8.58953C153.821 7.82785 154.583 7.2589 155.484 6.88265C156.384 6.5064 157.413 6.32287 158.553 6.32287C159.692 6.32287 160.703 6.51557 161.576 6.88265C162.449 7.2589 163.166 7.81868 163.735 8.562C164.305 9.30533 164.737 10.2322 165.031 11.3242C165.325 12.4255 165.472 13.701 165.472 15.1602V17.3167H153.26V14.0039H160.841V13.5817C160.841 12.8384 160.767 12.2236 160.602 11.7188C160.446 11.2233 160.198 10.847 159.858 10.5993C159.518 10.3515 159.067 10.2322 158.507 10.2322C158.038 10.2322 157.634 10.324 157.312 10.5167C156.991 10.7094 156.724 11.0031 156.54 11.4068C156.348 11.8106 156.21 12.3337 156.118 12.9761C156.026 13.6185 155.98 14.3893 155.98 15.2887V16.7845C155.98 17.6288 156.053 18.3262 156.2 18.8952C156.347 19.4641 156.559 19.923 156.853 20.2717C157.147 20.6204 157.487 20.8774 157.91 21.0242C158.332 21.171 158.81 21.2536 159.361 21.2536C160.188 21.2536 160.942 21.1068 161.613 20.804C162.283 20.5103 162.853 20.0973 163.322 19.5834L165.206 22.4466C164.884 22.8687 164.434 23.3001 163.855 23.7222C163.285 24.1443 162.596 24.493 161.796 24.7684C160.997 25.0437 160.078 25.1721 159.031 25.1721L159.049 25.1813Z" fill="#2C3842"/>
<path d="M176.131 6.64404V10.1955H166.832V6.64404H176.131ZM168.973 2.15657H173.668V19.2989C173.668 19.7945 173.714 20.1799 173.825 20.4461C173.926 20.7214 174.082 20.9141 174.284 21.015C174.495 21.1251 174.762 21.171 175.102 21.171C175.35 21.171 175.57 21.1527 175.773 21.1251C175.975 21.0976 176.122 21.0701 176.232 21.0334V24.7133C175.865 24.8601 175.469 24.9702 175.065 25.0528C174.652 25.1262 174.174 25.1721 173.613 25.1721C172.667 25.1721 171.849 24.9978 171.16 24.6399C170.471 24.2912 169.938 23.713 169.552 22.9146C169.166 22.1162 168.982 21.0793 168.982 19.7853V2.1382L168.973 2.15657Z" fill="#2C3842"/>
</svg>
